<?xml version="1.0" encoding="UTF-8" standalone="no"?><svg xmlns="http://www.w3.org/2000/svg" xmlns:xlink="http://www.w3.org/1999/xlink" contentScriptType="application/ecmascript" contentStyleType="text/css" height="499px" preserveAspectRatio="none" style="width:1213px;height:499px;" version="1.1" viewBox="0 0 1213 499" width="1213px" zoomAndPan="magnify"><defs><filter height="300%" id="fhjclg1bgplce" width="300%" x="-1" y="-1"><feGaussianBlur result="blurOut" stdDeviation="2.0"/><feColorMatrix in="blurOut" result="blurOut2" type="matrix" values="0 0 0 0 0 0 0 0 0 0 0 0 0 0 0 0 0 0 .4 0"/><feOffset dx="4.0" dy="4.0" in="blurOut2" result="blurOut3"/><feBlend in="SourceGraphic" in2="blurOut3" mode="normal"/></filter></defs><g><!--MD5=[bd5220611d0c28d928ccc89c278a01cf]
class ApplicationContext--><rect fill="#DDEEE8" filter="url(#fhjclg1bgplce)" height="48" id="ApplicationContext" style="stroke: #225C4D; stroke-width: 1.5;" width="144" x="37" y="8"/><ellipse cx="52" cy="24" fill="#B4A7E5" rx="11" ry="11" style="stroke: #225C4D; stroke-width: 1.0;"/><path d="M47.9219,19.7656 L47.9219,17.6094 L55.3125,17.6094 L55.3125,19.7656 L52.8438,19.7656 L52.8438,27.8438 L55.3125,27.8438 L55.3125,30 L47.9219,30 L47.9219,27.8438 L50.3906,27.8438 L50.3906,19.7656 L47.9219,19.7656 Z "/><text fill="#000000" font-family="sans-serif" font-size="12" font-style="italic" lengthAdjust="spacingAndGlyphs" textLength="112" x="66" y="28.1543">ApplicationContext</text><line style="stroke: #225C4D; stroke-width: 1.5;" x1="38" x2="180" y1="40" y2="40"/><line style="stroke: #225C4D; stroke-width: 1.5;" x1="38" x2="180" y1="48" y2="48"/><!--MD5=[0d935ab01ab745f54ea50b53c0359c1d]
class ConfigurableApplicationContext--><rect fill="#DDEEE8" filter="url(#fhjclg1bgplce)" height="48" id="ConfigurableApplicationContext" style="stroke: #225C4D; stroke-width: 1.5;" width="219" x="216.5" y="8"/><ellipse cx="231.5" cy="24" fill="#B4A7E5" rx="11" ry="11" style="stroke: #225C4D; stroke-width: 1.0;"/><path d="M227.4219,19.7656 L227.4219,17.6094 L234.8125,17.6094 L234.8125,19.7656 L232.3438,19.7656 L232.3438,27.8438 L234.8125,27.8438 L234.8125,30 L227.4219,30 L227.4219,27.8438 L229.8906,27.8438 L229.8906,19.7656 L227.4219,19.7656 Z "/><text fill="#000000" font-family="sans-serif" font-size="12" font-style="italic" lengthAdjust="spacingAndGlyphs" textLength="187" x="245.5" y="28.1543">ConfigurableApplicationContext</text><line style="stroke: #225C4D; stroke-width: 1.5;" x1="217.5" x2="434.5" y1="40" y2="40"/><line style="stroke: #225C4D; stroke-width: 1.5;" x1="217.5" x2="434.5" y1="48" y2="48"/><!--MD5=[a65f6e9aeee0d27719d64de862c98991]
class AbstractApplicationContext--><rect fill="#DDEEE8" filter="url(#fhjclg1bgplce)" height="48" id="AbstractApplicationContext" style="stroke: #225C4D; stroke-width: 1.5;" width="202" x="471" y="8"/><ellipse cx="486" cy="24" fill="#ADD1B2" rx="11" ry="11" style="stroke: #225C4D; stroke-width: 1.0;"/><path d="M488.9688,29.6406 Q488.3906,29.9375 487.75,30.0781 Q487.1094,30.2344 486.4063,30.2344 Q483.9063,30.2344 482.5781,28.5938 Q481.2656,26.9375 481.2656,23.8125 Q481.2656,20.6875 482.5781,19.0313 Q483.9063,17.375 486.4063,17.375 Q487.1094,17.375 487.75,17.5313 Q488.4063,17.6875 488.9688,17.9844 L488.9688,20.7031 Q488.3438,20.125 487.75,19.8594 Q487.1563,19.5781 486.5313,19.5781 Q485.1875,19.5781 484.5,20.6563 Q483.8125,21.7188 483.8125,23.8125 Q483.8125,25.9063 484.5,26.9844 Q485.1875,28.0469 486.5313,28.0469 Q487.1563,28.0469 487.75,27.7813 Q488.3438,27.5 488.9688,26.9219 L488.9688,29.6406 Z "/><text fill="#000000" font-family="sans-serif" font-size="12" lengthAdjust="spacingAndGlyphs" textLength="170" x="500" y="28.1543">AbstractApplicationContext</text><line style="stroke: #225C4D; stroke-width: 1.5;" x1="472" x2="672" y1="40" y2="40"/><line style="stroke: #225C4D; stroke-width: 1.5;" x1="472" x2="672" y1="48" y2="48"/><!--MD5=[fd73bff280e943dfe3161fd376d30331]
class AbstractRefreshableApplicationContext--><rect fill="#DDEEE8" filter="url(#fhjclg1bgplce)" height="48" id="AbstractRefreshableApplicationContext" style="stroke: #225C4D; stroke-width: 1.5;" width="277" x="285.5" y="116"/><ellipse cx="300.5" cy="132" fill="#ADD1B2" rx="11" ry="11" style="stroke: #225C4D; stroke-width: 1.0;"/><path d="M303.4688,137.6406 Q302.8906,137.9375 302.25,138.0781 Q301.6094,138.2344 300.9063,138.2344 Q298.4063,138.2344 297.0781,136.5938 Q295.7656,134.9375 295.7656,131.8125 Q295.7656,128.6875 297.0781,127.0313 Q298.4063,125.375 300.9063,125.375 Q301.6094,125.375 302.25,125.5313 Q302.9063,125.6875 303.4688,125.9844 L303.4688,128.7031 Q302.8438,128.125 302.25,127.8594 Q301.6563,127.5781 301.0313,127.5781 Q299.6875,127.5781 299,128.6563 Q298.3125,129.7188 298.3125,131.8125 Q298.3125,133.9063 299,134.9844 Q299.6875,136.0469 301.0313,136.0469 Q301.6563,136.0469 302.25,135.7813 Q302.8438,135.5 303.4688,134.9219 L303.4688,137.6406 Z "/><text fill="#000000" font-family="sans-serif" font-size="12" lengthAdjust="spacingAndGlyphs" textLength="245" x="314.5" y="136.1543">AbstractRefreshableApplicationContext</text><line style="stroke: #225C4D; stroke-width: 1.5;" x1="286.5" x2="561.5" y1="148" y2="148"/><line style="stroke: #225C4D; stroke-width: 1.5;" x1="286.5" x2="561.5" y1="156" y2="156"/><!--MD5=[9d101a53141b43caf9b055f955bebac6]
class AbstractRefreshableConfigApplicationContext--><rect fill="#DDEEE8" filter="url(#fhjclg1bgplce)" height="48" id="AbstractRefreshableConfigApplicationContext" style="stroke: #225C4D; stroke-width: 1.5;" width="316" x="100" y="224"/><ellipse cx="115" cy="240" fill="#ADD1B2" rx="11" ry="11" style="stroke: #225C4D; stroke-width: 1.0;"/><path d="M117.9688,245.6406 Q117.3906,245.9375 116.75,246.0781 Q116.1094,246.2344 115.4063,246.2344 Q112.9063,246.2344 111.5781,244.5938 Q110.2656,242.9375 110.2656,239.8125 Q110.2656,236.6875 111.5781,235.0313 Q112.9063,233.375 115.4063,233.375 Q116.1094,233.375 116.75,233.5313 Q117.4063,233.6875 117.9688,233.9844 L117.9688,236.7031 Q117.3438,236.125 116.75,235.8594 Q116.1563,235.5781 115.5313,235.5781 Q114.1875,235.5781 113.5,236.6563 Q112.8125,237.7188 112.8125,239.8125 Q112.8125,241.9063 113.5,242.9844 Q114.1875,244.0469 115.5313,244.0469 Q116.1563,244.0469 116.75,243.7813 Q117.3438,243.5 117.9688,242.9219 L117.9688,245.6406 Z "/><text fill="#000000" font-family="sans-serif" font-size="12" lengthAdjust="spacingAndGlyphs" textLength="284" x="129" y="244.1543">AbstractRefreshableConfigApplicationContext</text><line style="stroke: #225C4D; stroke-width: 1.5;" x1="101" x2="415" y1="256" y2="256"/><line style="stroke: #225C4D; stroke-width: 1.5;" x1="101" x2="415" y1="264" y2="264"/><!--MD5=[e842170f97f9ef58e17e81c8d993c83a]
class AbstractXmlApplicationContext--><rect fill="#DDEEE8" filter="url(#fhjclg1bgplce)" height="48" id="AbstractXmlApplicationContext" style="stroke: #225C4D; stroke-width: 1.5;" width="225" x="145.5" y="332"/><ellipse cx="160.5" cy="348" fill="#ADD1B2" rx="11" ry="11" style="stroke: #225C4D; stroke-width: 1.0;"/><path d="M163.4688,353.6406 Q162.8906,353.9375 162.25,354.0781 Q161.6094,354.2344 160.9063,354.2344 Q158.4063,354.2344 157.0781,352.5938 Q155.7656,350.9375 155.7656,347.8125 Q155.7656,344.6875 157.0781,343.0313 Q158.4063,341.375 160.9063,341.375 Q161.6094,341.375 162.25,341.5313 Q162.9063,341.6875 163.4688,341.9844 L163.4688,344.7031 Q162.8438,344.125 162.25,343.8594 Q161.6563,343.5781 161.0313,343.5781 Q159.6875,343.5781 159,344.6563 Q158.3125,345.7188 158.3125,347.8125 Q158.3125,349.9063 159,350.9844 Q159.6875,352.0469 161.0313,352.0469 Q161.6563,352.0469 162.25,351.7813 Q162.8438,351.5 163.4688,350.9219 L163.4688,353.6406 Z "/><text fill="#000000" font-family="sans-serif" font-size="12" lengthAdjust="spacingAndGlyphs" textLength="193" x="174.5" y="352.1543">AbstractXmlApplicationContext</text><line style="stroke: #225C4D; stroke-width: 1.5;" x1="146.5" x2="369.5" y1="364" y2="364"/><line style="stroke: #225C4D; stroke-width: 1.5;" x1="146.5" x2="369.5" y1="372" y2="372"/><!--MD5=[aeaabfa2a85afdbe7994c7ea720e4a63]
class ClassPathXmlApplicationContext--><rect fill="#DDEEE8" filter="url(#fhjclg1bgplce)" height="48" id="ClassPathXmlApplicationContext" style="stroke: #225C4D; stroke-width: 1.5;" width="234" x="6" y="440"/><ellipse cx="21" cy="456" fill="#ADD1B2" rx="11" ry="11" style="stroke: #225C4D; stroke-width: 1.0;"/><path d="M23.9688,461.6406 Q23.3906,461.9375 22.75,462.0781 Q22.1094,462.2344 21.4063,462.2344 Q18.9063,462.2344 17.5781,460.5938 Q16.2656,458.9375 16.2656,455.8125 Q16.2656,452.6875 17.5781,451.0313 Q18.9063,449.375 21.4063,449.375 Q22.1094,449.375 22.75,449.5313 Q23.4063,449.6875 23.9688,449.9844 L23.9688,452.7031 Q23.3438,452.125 22.75,451.8594 Q22.1563,451.5781 21.5313,451.5781 Q20.1875,451.5781 19.5,452.6563 Q18.8125,453.7188 18.8125,455.8125 Q18.8125,457.9063 19.5,458.9844 Q20.1875,460.0469 21.5313,460.0469 Q22.1563,460.0469 22.75,459.7813 Q23.3438,459.5 23.9688,458.9219 L23.9688,461.6406 Z "/><text fill="#000000" font-family="sans-serif" font-size="12" lengthAdjust="spacingAndGlyphs" textLength="202" x="35" y="460.1543">ClassPathXmlApplicationContext</text><line style="stroke: #225C4D; stroke-width: 1.5;" x1="7" x2="239" y1="472" y2="472"/><line style="stroke: #225C4D; stroke-width: 1.5;" x1="7" x2="239" y1="480" y2="480"/><!--MD5=[b942b311bef472b1e82e53dfb801bce9]
class FileSystemXmlApplicationContext--><rect fill="#DDEEE8" filter="url(#fhjclg1bgplce)" height="48" id="FileSystemXmlApplicationContext" style="stroke: #225C4D; stroke-width: 1.5;" width="238" x="275" y="440"/><ellipse cx="290" cy="456" fill="#ADD1B2" rx="11" ry="11" style="stroke: #225C4D; stroke-width: 1.0;"/><path d="M292.9688,461.6406 Q292.3906,461.9375 291.75,462.0781 Q291.1094,462.2344 290.4063,462.2344 Q287.9063,462.2344 286.5781,460.5938 Q285.2656,458.9375 285.2656,455.8125 Q285.2656,452.6875 286.5781,451.0313 Q287.9063,449.375 290.4063,449.375 Q291.1094,449.375 291.75,449.5313 Q292.4063,449.6875 292.9688,449.9844 L292.9688,452.7031 Q292.3438,452.125 291.75,451.8594 Q291.1563,451.5781 290.5313,451.5781 Q289.1875,451.5781 288.5,452.6563 Q287.8125,453.7188 287.8125,455.8125 Q287.8125,457.9063 288.5,458.9844 Q289.1875,460.0469 290.5313,460.0469 Q291.1563,460.0469 291.75,459.7813 Q292.3438,459.5 292.9688,458.9219 L292.9688,461.6406 Z "/><text fill="#000000" font-family="sans-serif" font-size="12" lengthAdjust="spacingAndGlyphs" textLength="206" x="304" y="460.1543">FileSystemXmlApplicationContext</text><line style="stroke: #225C4D; stroke-width: 1.5;" x1="276" x2="512" y1="472" y2="472"/><line style="stroke: #225C4D; stroke-width: 1.5;" x1="276" x2="512" y1="480" y2="480"/><!--MD5=[957fa70b0cf830f543d45538d1893298]
class GenericApplicationContext--><rect fill="#DDEEE8" filter="url(#fhjclg1bgplce)" height="48" id="GenericApplicationContext" style="stroke: #225C4D; stroke-width: 1.5;" width="197" x="622.5" y="116"/><ellipse cx="637.5" cy="132" fill="#ADD1B2" rx="11" ry="11" style="stroke: #225C4D; stroke-width: 1.0;"/><path d="M640.4688,137.6406 Q639.8906,137.9375 639.25,138.0781 Q638.6094,138.2344 637.9063,138.2344 Q635.4063,138.2344 634.0781,136.5938 Q632.7656,134.9375 632.7656,131.8125 Q632.7656,128.6875 634.0781,127.0313 Q635.4063,125.375 637.9063,125.375 Q638.6094,125.375 639.25,125.5313 Q639.9063,125.6875 640.4688,125.9844 L640.4688,128.7031 Q639.8438,128.125 639.25,127.8594 Q638.6563,127.5781 638.0313,127.5781 Q636.6875,127.5781 636,128.6563 Q635.3125,129.7188 635.3125,131.8125 Q635.3125,133.9063 636,134.9844 Q636.6875,136.0469 638.0313,136.0469 Q638.6563,136.0469 639.25,135.7813 Q639.8438,135.5 640.4688,134.9219 L640.4688,137.6406 Z "/><text fill="#000000" font-family="sans-serif" font-size="12" lengthAdjust="spacingAndGlyphs" textLength="165" x="651.5" y="136.1543">GenericApplicationContext</text><line style="stroke: #225C4D; stroke-width: 1.5;" x1="623.5" x2="818.5" y1="148" y2="148"/><line style="stroke: #225C4D; stroke-width: 1.5;" x1="623.5" x2="818.5" y1="156" y2="156"/><!--MD5=[cda2b11856ba6980467e145a4f8e0c01]
class AnnotationConfigApplicationContext--><rect fill="#DDEEE8" filter="url(#fhjclg1bgplce)" height="48" id="AnnotationConfigApplicationContext" style="stroke: #225C4D; stroke-width: 1.5;" width="257" x="451.5" y="224"/><ellipse cx="466.5" cy="240" fill="#ADD1B2" rx="11" ry="11" style="stroke: #225C4D; stroke-width: 1.0;"/><path d="M469.4688,245.6406 Q468.8906,245.9375 468.25,246.0781 Q467.6094,246.2344 466.9063,246.2344 Q464.4063,246.2344 463.0781,244.5938 Q461.7656,242.9375 461.7656,239.8125 Q461.7656,236.6875 463.0781,235.0313 Q464.4063,233.375 466.9063,233.375 Q467.6094,233.375 468.25,233.5313 Q468.9063,233.6875 469.4688,233.9844 L469.4688,236.7031 Q468.8438,236.125 468.25,235.8594 Q467.6563,235.5781 467.0313,235.5781 Q465.6875,235.5781 465,236.6563 Q464.3125,237.7188 464.3125,239.8125 Q464.3125,241.9063 465,242.9844 Q465.6875,244.0469 467.0313,244.0469 Q467.6563,244.0469 468.25,243.7813 Q468.8438,243.5 469.4688,242.9219 L469.4688,245.6406 Z "/><text fill="#000000" font-family="sans-serif" font-size="12" lengthAdjust="spacingAndGlyphs" textLength="225" x="480.5" y="244.1543">AnnotationConfigApplicationContext</text><line style="stroke: #225C4D; stroke-width: 1.5;" x1="452.5" x2="707.5" y1="256" y2="256"/><line style="stroke: #225C4D; stroke-width: 1.5;" x1="452.5" x2="707.5" y1="264" y2="264"/><!--MD5=[6ba66319fe6fb6ff82761337233ade77]
class GenericGroovyApplicationContext--><rect fill="#DDEEE8" filter="url(#fhjclg1bgplce)" height="48" id="GenericGroovyApplicationContext" style="stroke: #225C4D; stroke-width: 1.5;" width="239" x="743.5" y="224"/><ellipse cx="758.5" cy="240" fill="#ADD1B2" rx="11" ry="11" style="stroke: #225C4D; stroke-width: 1.0;"/><path d="M761.4688,245.6406 Q760.8906,245.9375 760.25,246.0781 Q759.6094,246.2344 758.9063,246.2344 Q756.4063,246.2344 755.0781,244.5938 Q753.7656,242.9375 753.7656,239.8125 Q753.7656,236.6875 755.0781,235.0313 Q756.4063,233.375 758.9063,233.375 Q759.6094,233.375 760.25,233.5313 Q760.9063,233.6875 761.4688,233.9844 L761.4688,236.7031 Q760.8438,236.125 760.25,235.8594 Q759.6563,235.5781 759.0313,235.5781 Q757.6875,235.5781 757,236.6563 Q756.3125,237.7188 756.3125,239.8125 Q756.3125,241.9063 757,242.9844 Q757.6875,244.0469 759.0313,244.0469 Q759.6563,244.0469 760.25,243.7813 Q760.8438,243.5 761.4688,242.9219 L761.4688,245.6406 Z "/><text fill="#000000" font-family="sans-serif" font-size="12" lengthAdjust="spacingAndGlyphs" textLength="207" x="772.5" y="244.1543">GenericGroovyApplicationContext</text><line style="stroke: #225C4D; stroke-width: 1.5;" x1="744.5" x2="981.5" y1="256" y2="256"/><line style="stroke: #225C4D; stroke-width: 1.5;" x1="744.5" x2="981.5" y1="264" y2="264"/><!--MD5=[c03220c2a2450e2e2e5277f3296745f4]
class StaticApplicationContext--><rect fill="#DDEEE8" filter="url(#fhjclg1bgplce)" height="48" id="StaticApplicationContext" style="stroke: #225C4D; stroke-width: 1.5;" width="185" x="1017.5" y="224"/><ellipse cx="1032.5" cy="240" fill="#ADD1B2" rx="11" ry="11" style="stroke: #225C4D; stroke-width: 1.0;"/><path d="M1035.4688,245.6406 Q1034.8906,245.9375 1034.25,246.0781 Q1033.6094,246.2344 1032.9063,246.2344 Q1030.4063,246.2344 1029.0781,244.5938 Q1027.7656,242.9375 1027.7656,239.8125 Q1027.7656,236.6875 1029.0781,235.0313 Q1030.4063,233.375 1032.9063,233.375 Q1033.6094,233.375 1034.25,233.5313 Q1034.9063,233.6875 1035.4688,233.9844 L1035.4688,236.7031 Q1034.8438,236.125 1034.25,235.8594 Q1033.6563,235.5781 1033.0313,235.5781 Q1031.6875,235.5781 1031,236.6563 Q1030.3125,237.7188 1030.3125,239.8125 Q1030.3125,241.9063 1031,242.9844 Q1031.6875,244.0469 1033.0313,244.0469 Q1033.6563,244.0469 1034.25,243.7813 Q1034.8438,243.5 1035.4688,242.9219 L1035.4688,245.6406 Z "/><text fill="#000000" font-family="sans-serif" font-size="12" lengthAdjust="spacingAndGlyphs" textLength="153" x="1046.5" y="244.1543">StaticApplicationContext</text><line style="stroke: #225C4D; stroke-width: 1.5;" x1="1018.5" x2="1201.5" y1="256" y2="256"/><line style="stroke: #225C4D; stroke-width: 1.5;" x1="1018.5" x2="1201.5" y1="264" y2="264"/><!--MD5=[470ca5d9f35e2b5ed94a2a37f770afca]
reverse link ApplicationContext to ConfigurableApplicationContext--><path d="M201.23,32 C206.3,32 211.37,32 216.44,32 " fill="none" id="ApplicationContext&lt;-ConfigurableApplicationContext" style="stroke: #225C4D; stroke-width: 1.0; stroke-dasharray: 7.0,7.0;"/><polygon fill="none" points="201.05,39,181.05,32,201.05,25,201.05,39" style="stroke: #225C4D; stroke-width: 1.0;"/><!--MD5=[7c8c9ea097a84aee196d5fee1889692c]
reverse link ConfigurableApplicationContext to AbstractApplicationContext--><path d="M455.76,32 C460.84,32 465.92,32 470.99,32 " fill="none" id="ConfigurableApplicationContext&lt;-AbstractApplicationContext" style="stroke: #225C4D; stroke-width: 1.0; stroke-dasharray: 7.0,7.0;"/><polygon fill="none" points="455.55,39,435.55,32,455.55,25,455.55,39" style="stroke: #225C4D; stroke-width: 1.0;"/><!--MD5=[bcaba93e9af0ccc02c88d2824803769f]
reverse link AbstractApplicationContext to AbstractRefreshableApplicationContext--><path d="M523.49,67.75 C501.44,83.53 475.96,101.78 456.31,115.86 " fill="none" id="AbstractApplicationContext&lt;-AbstractRefreshableApplicationContext" style="stroke: #225C4D; stroke-width: 1.0;"/><polygon fill="none" points="519.55,61.96,539.89,56,527.7,73.34,519.55,61.96" style="stroke: #225C4D; stroke-width: 1.0;"/><!--MD5=[106a4901860931f938320ef8ab1486b6]
reverse link AbstractRefreshableApplicationContext to AbstractRefreshableConfigApplicationContext--><path d="M371.04,174.81 C345.99,190.81 316.72,209.51 294.24,223.86 " fill="none" id="AbstractRefreshableApplicationContext&lt;-AbstractRefreshableConfigApplicationContext" style="stroke: #225C4D; stroke-width: 1.0;"/><polygon fill="none" points="367.36,168.86,387.98,164,374.89,180.66,367.36,168.86" style="stroke: #225C4D; stroke-width: 1.0;"/><!--MD5=[c4fc165fc6e1954635a8a4cf5e791c66]
reverse link AbstractRefreshableConfigApplicationContext to AbstractXmlApplicationContext--><path d="M258,292.02 C258,305.58 258,320.04 258,331.68 " fill="none" id="AbstractRefreshableConfigApplicationContext&lt;-AbstractXmlApplicationContext" style="stroke: #225C4D; stroke-width: 1.0;"/><polygon fill="none" points="251,292,258,272,265,292,251,292" style="stroke: #225C4D; stroke-width: 1.0;"/><!--MD5=[c3c349104a1a48ceeac738690c43ee79]
reverse link AbstractXmlApplicationContext to ClassPathXmlApplicationContext--><path d="M212.91,392.4 C193.09,407.97 170.35,425.82 152.7,439.68 " fill="none" id="AbstractXmlApplicationContext&lt;-ClassPathXmlApplicationContext" style="stroke: #225C4D; stroke-width: 1.0;"/><polygon fill="none" points="208.65,386.85,228.71,380,217.3,397.86,208.65,386.85" style="stroke: #225C4D; stroke-width: 1.0;"/><!--MD5=[b9ecebb4159c088488e163935de3c3fb]
reverse link AbstractXmlApplicationContext to FileSystemXmlApplicationContext--><path d="M303.42,392.4 C323.39,407.97 346.3,425.82 364.08,439.68 " fill="none" id="AbstractXmlApplicationContext&lt;-FileSystemXmlApplicationContext" style="stroke: #225C4D; stroke-width: 1.0;"/><polygon fill="none" points="298.98,397.82,287.51,380,307.59,386.77,298.98,397.82" style="stroke: #225C4D; stroke-width: 1.0;"/><!--MD5=[7a6b178763b16385f64c24cc03026bc3]
reverse link AbstractApplicationContext to GenericApplicationContext--><path d="M620.84,67.75 C643.03,83.53 668.69,101.78 688.48,115.86 " fill="none" id="AbstractApplicationContext&lt;-GenericApplicationContext" style="stroke: #225C4D; stroke-width: 1.0;"/><polygon fill="none" points="616.57,73.3,604.33,56,624.69,61.89,616.57,73.3" style="stroke: #225C4D; stroke-width: 1.0;"/><!--MD5=[c25b2dc65fb10b6786164d1d76c3dbdc]
reverse link GenericApplicationContext to AnnotationConfigApplicationContext--><path d="M674.22,176.17 C653.44,191.79 629.55,209.75 611.02,223.68 " fill="none" id="GenericApplicationContext&lt;-AnnotationConfigApplicationContext" style="stroke: #225C4D; stroke-width: 1.0;"/><polygon fill="none" points="670.21,170.42,690.41,164,678.63,181.61,670.21,170.42" style="stroke: #225C4D; stroke-width: 1.0;"/><!--MD5=[37a2d9664a9b515b3eb0861059c16329]
reverse link GenericApplicationContext to GenericGroovyApplicationContext--><path d="M768.11,176.17 C789.04,191.79 813.1,209.75 831.76,223.68 " fill="none" id="GenericApplicationContext&lt;-GenericGroovyApplicationContext" style="stroke: #225C4D; stroke-width: 1.0;"/><polygon fill="none" points="763.65,181.57,751.81,164,772.03,170.35,763.65,181.57" style="stroke: #225C4D; stroke-width: 1.0;"/><!--MD5=[517817a41f08d5a65b9f06d7f5d10c85]
reverse link GenericApplicationContext to StaticApplicationContext--><path d="M824.74,169.27 C887.49,186.37 966.48,207.89 1025.42,223.95 " fill="none" id="GenericApplicationContext&lt;-StaticApplicationContext" style="stroke: #225C4D; stroke-width: 1.0;"/><polygon fill="none" points="822.86,176.01,805.41,164,826.54,162.5,822.86,176.01" style="stroke: #225C4D; stroke-width: 1.0;"/><!--MD5=[7416af1a08805dc3264db3d553b30d4b]
@startuml
skinparam class {
 BackgroundColor #DDEEE8
 BorderColor #225C4D
 ArrowColor #225C4D
 }
interface ApplicationContext
interface ConfigurableApplicationContext

ApplicationContext <|. ConfigurableApplicationContext
ConfigurableApplicationContext <|. AbstractApplicationContext
AbstractApplicationContext <|- - AbstractRefreshableApplicationContext
AbstractRefreshableApplicationContext <|- - AbstractRefreshableConfigApplicationContext
AbstractRefreshableConfigApplicationContext <|- - AbstractXmlApplicationContext
AbstractXmlApplicationContext <|- - ClassPathXmlApplicationContext
AbstractXmlApplicationContext <|- - FileSystemXmlApplicationContext

AbstractApplicationContext <|- - GenericApplicationContext
GenericApplicationContext <|- - AnnotationConfigApplicationContext
GenericApplicationContext <|- - GenericGroovyApplicationContext
GenericApplicationContext <|- - StaticApplicationContext
@enduml

PlantUML version 1.2019.12(Sun Nov 03 11:24:54 CET 2019)
(APACHE source distribution)
Java Runtime: OpenJDK Runtime Environment
JVM: OpenJDK 64-Bit Server VM
Java Version: 11.0.18+10-post-Debian-1deb11u1
Operating System: Linux
Default Encoding: UTF-8
Language: en
Country: DK
--></g></svg>