<?xml version="1.0" encoding="UTF-8" standalone="no"?><svg xmlns="http://www.w3.org/2000/svg" xmlns:xlink="http://www.w3.org/1999/xlink" contentScriptType="application/ecmascript" contentStyleType="text/css" height="175px" preserveAspectRatio="none" style="width:330px;height:175px;" version="1.1" viewBox="0 0 330 175" width="330px" zoomAndPan="magnify"><defs><filter height="300%" id="f1fetghx3zdc2g" width="300%" x="-1" y="-1"><feGaussianBlur result="blurOut" stdDeviation="2.0"/><feColorMatrix in="blurOut" result="blurOut2" type="matrix" values="0 0 0 0 0 0 0 0 0 0 0 0 0 0 0 0 0 0 .4 0"/><feOffset dx="4.0" dy="4.0" in="blurOut2" result="blurOut3"/><feBlend in="SourceGraphic" in2="blurOut3" mode="normal"/></filter></defs><g><!--MD5=[219898b7f8d5c969bf80bd91dd512ee8]
class MyService--><rect fill="#DDEEE8" filter="url(#f1fetghx3zdc2g)" height="48" id="MyService" style="stroke: #225C4D; stroke-width: 1.5;" width="93" x="6" y="8"/><ellipse cx="21" cy="24" fill="#ADD1B2" rx="11" ry="11" style="stroke: #225C4D; stroke-width: 1.0;"/><path d="M23.9688,29.6406 Q23.3906,29.9375 22.75,30.0781 Q22.1094,30.2344 21.4063,30.2344 Q18.9063,30.2344 17.5781,28.5938 Q16.2656,26.9375 16.2656,23.8125 Q16.2656,20.6875 17.5781,19.0313 Q18.9063,17.375 21.4063,17.375 Q22.1094,17.375 22.75,17.5313 Q23.4063,17.6875 23.9688,17.9844 L23.9688,20.7031 Q23.3438,20.125 22.75,19.8594 Q22.1563,19.5781 21.5313,19.5781 Q20.1875,19.5781 19.5,20.6563 Q18.8125,21.7188 18.8125,23.8125 Q18.8125,25.9063 19.5,26.9844 Q20.1875,28.0469 21.5313,28.0469 Q22.1563,28.0469 22.75,27.7813 Q23.3438,27.5 23.9688,26.9219 L23.9688,29.6406 Z "/><text fill="#000000" font-family="sans-serif" font-size="12" lengthAdjust="spacingAndGlyphs" textLength="61" x="35" y="28.1543">MyService</text><line style="stroke: #225C4D; stroke-width: 1.5;" x1="7" x2="98" y1="40" y2="40"/><line style="stroke: #225C4D; stroke-width: 1.5;" x1="7" x2="98" y1="48" y2="48"/><!--MD5=[94d3e4af53c3d62d16f94c1107482528]
class UsedService--><rect fill="#DDEEE8" filter="url(#f1fetghx3zdc2g)" height="48" id="UsedService" style="stroke: #225C4D; stroke-width: 1.5;" width="105" x="134" y="8"/><ellipse cx="149" cy="24" fill="#B4A7E5" rx="11" ry="11" style="stroke: #225C4D; stroke-width: 1.0;"/><path d="M144.9219,19.7656 L144.9219,17.6094 L152.3125,17.6094 L152.3125,19.7656 L149.8438,19.7656 L149.8438,27.8438 L152.3125,27.8438 L152.3125,30 L144.9219,30 L144.9219,27.8438 L147.3906,27.8438 L147.3906,19.7656 L144.9219,19.7656 Z "/><text fill="#000000" font-family="sans-serif" font-size="12" font-style="italic" lengthAdjust="spacingAndGlyphs" textLength="73" x="163" y="28.1543">UsedService</text><line style="stroke: #225C4D; stroke-width: 1.5;" x1="135" x2="238" y1="40" y2="40"/><line style="stroke: #225C4D; stroke-width: 1.5;" x1="135" x2="238" y1="48" y2="48"/><!--MD5=[d0eeb360c93230f40a372f310f64b160]
class ImplA--><rect fill="#DDEEE8" filter="url(#f1fetghx3zdc2g)" height="48" id="ImplA" style="stroke: #225C4D; stroke-width: 1.5;" width="65" x="54" y="116"/><ellipse cx="69" cy="132" fill="#ADD1B2" rx="11" ry="11" style="stroke: #225C4D; stroke-width: 1.0;"/><path d="M71.9688,137.6406 Q71.3906,137.9375 70.75,138.0781 Q70.1094,138.2344 69.4063,138.2344 Q66.9063,138.2344 65.5781,136.5938 Q64.2656,134.9375 64.2656,131.8125 Q64.2656,128.6875 65.5781,127.0313 Q66.9063,125.375 69.4063,125.375 Q70.1094,125.375 70.75,125.5313 Q71.4063,125.6875 71.9688,125.9844 L71.9688,128.7031 Q71.3438,128.125 70.75,127.8594 Q70.1563,127.5781 69.5313,127.5781 Q68.1875,127.5781 67.5,128.6563 Q66.8125,129.7188 66.8125,131.8125 Q66.8125,133.9063 67.5,134.9844 Q68.1875,136.0469 69.5313,136.0469 Q70.1563,136.0469 70.75,135.7813 Q71.3438,135.5 71.9688,134.9219 L71.9688,137.6406 Z "/><text fill="#000000" font-family="sans-serif" font-size="12" lengthAdjust="spacingAndGlyphs" textLength="33" x="83" y="136.1543">ImplA</text><line style="stroke: #225C4D; stroke-width: 1.5;" x1="55" x2="118" y1="148" y2="148"/><line style="stroke: #225C4D; stroke-width: 1.5;" x1="55" x2="118" y1="156" y2="156"/><!--MD5=[44dea7237d6d6925a114feadf3890b9b]
class ImplB--><rect fill="#DDEEE8" filter="url(#f1fetghx3zdc2g)" height="48" id="ImplB" style="stroke: #225C4D; stroke-width: 1.5;" width="65" x="154" y="116"/><ellipse cx="169" cy="132" fill="#ADD1B2" rx="11" ry="11" style="stroke: #225C4D; stroke-width: 1.0;"/><path d="M171.9688,137.6406 Q171.3906,137.9375 170.75,138.0781 Q170.1094,138.2344 169.4063,138.2344 Q166.9063,138.2344 165.5781,136.5938 Q164.2656,134.9375 164.2656,131.8125 Q164.2656,128.6875 165.5781,127.0313 Q166.9063,125.375 169.4063,125.375 Q170.1094,125.375 170.75,125.5313 Q171.4063,125.6875 171.9688,125.9844 L171.9688,128.7031 Q171.3438,128.125 170.75,127.8594 Q170.1563,127.5781 169.5313,127.5781 Q168.1875,127.5781 167.5,128.6563 Q166.8125,129.7188 166.8125,131.8125 Q166.8125,133.9063 167.5,134.9844 Q168.1875,136.0469 169.5313,136.0469 Q170.1563,136.0469 170.75,135.7813 Q171.3438,135.5 171.9688,134.9219 L171.9688,137.6406 Z "/><text fill="#000000" font-family="sans-serif" font-size="12" lengthAdjust="spacingAndGlyphs" textLength="33" x="183" y="136.1543">ImplB</text><line style="stroke: #225C4D; stroke-width: 1.5;" x1="155" x2="218" y1="148" y2="148"/><line style="stroke: #225C4D; stroke-width: 1.5;" x1="155" x2="218" y1="156" y2="156"/><!--MD5=[f262a2db165ccd1a142b7e752dcdfe66]
class ImplC--><rect fill="#DDEEE8" filter="url(#f1fetghx3zdc2g)" height="48" id="ImplC" style="stroke: #225C4D; stroke-width: 1.5;" width="65" x="254" y="116"/><ellipse cx="269" cy="132" fill="#ADD1B2" rx="11" ry="11" style="stroke: #225C4D; stroke-width: 1.0;"/><path d="M271.9688,137.6406 Q271.3906,137.9375 270.75,138.0781 Q270.1094,138.2344 269.4063,138.2344 Q266.9063,138.2344 265.5781,136.5938 Q264.2656,134.9375 264.2656,131.8125 Q264.2656,128.6875 265.5781,127.0313 Q266.9063,125.375 269.4063,125.375 Q270.1094,125.375 270.75,125.5313 Q271.4063,125.6875 271.9688,125.9844 L271.9688,128.7031 Q271.3438,128.125 270.75,127.8594 Q270.1563,127.5781 269.5313,127.5781 Q268.1875,127.5781 267.5,128.6563 Q266.8125,129.7188 266.8125,131.8125 Q266.8125,133.9063 267.5,134.9844 Q268.1875,136.0469 269.5313,136.0469 Q270.1563,136.0469 270.75,135.7813 Q271.3438,135.5 271.9688,134.9219 L271.9688,137.6406 Z "/><text fill="#000000" font-family="sans-serif" font-size="12" lengthAdjust="spacingAndGlyphs" textLength="33" x="283" y="136.1543">ImplC</text><line style="stroke: #225C4D; stroke-width: 1.5;" x1="255" x2="318" y1="148" y2="148"/><line style="stroke: #225C4D; stroke-width: 1.5;" x1="255" x2="318" y1="156" y2="156"/><!--MD5=[6583a34027111f435741cff19d4cf768]
link MyService to UsedService--><path d="M99.09,32 C108.97,32 118.86,32 128.75,32 " fill="none" id="MyService-&gt;UsedService" style="stroke: #225C4D; stroke-width: 1.0;"/><polygon fill="#225C4D" points="133.91,32,124.9215,27.9743,128.91,31.9857,124.8986,35.9743,133.91,32" style="stroke: #225C4D; stroke-width: 1.0;"/><!--MD5=[59d3cbf50626bbf52fa09cfa8a5451c1]
reverse link UsedService to ImplA--><path d="M150.88,70.75 C136.74,85.74 120.92,102.51 108.5,115.68 " fill="none" id="UsedService&lt;-ImplA" style="stroke: #225C4D; stroke-width: 1.0;"/><polygon fill="none" points="145.99,65.74,164.8,56,156.17,75.35,145.99,65.74" style="stroke: #225C4D; stroke-width: 1.0;"/><!--MD5=[f387df898f764d4ef8af149d7cdf85e8]
reverse link UsedService to ImplB--><path d="M186.5,76.02 C186.5,89.58 186.5,104.04 186.5,115.68 " fill="none" id="UsedService&lt;-ImplB" style="stroke: #225C4D; stroke-width: 1.0;"/><polygon fill="none" points="179.5,76,186.5,56,193.5,76,179.5,76" style="stroke: #225C4D; stroke-width: 1.0;"/><!--MD5=[afb0d59e9e26e05da2ec94219dc57722]
reverse link UsedService to ImplC--><path d="M222.12,70.75 C236.26,85.74 252.08,102.51 264.5,115.68 " fill="none" id="UsedService&lt;-ImplC" style="stroke: #225C4D; stroke-width: 1.0;"/><polygon fill="none" points="216.83,75.35,208.2,56,227.01,65.74,216.83,75.35" style="stroke: #225C4D; stroke-width: 1.0;"/><!--MD5=[f7be6e6a3eb89e42e4721f90b56ac1bb]
@startuml
skinparam class {
 BackgroundColor #DDEEE8
 BorderColor #225C4D
 ArrowColor #225C4D
 }
class MyService
interface UsedService

MyService -> UsedService
UsedService <|- - ImplA
UsedService <|- - ImplB
UsedService <|- - ImplC
@enduml

PlantUML version 1.2019.12(Sun Nov 03 11:24:54 CET 2019)
(APACHE source distribution)
Java Runtime: OpenJDK Runtime Environment
JVM: OpenJDK 64-Bit Server VM
Java Version: 11.0.18+10-post-Debian-1deb11u1
Operating System: Linux
Default Encoding: UTF-8
Language: en
Country: DK
--></g></svg>