<?xml version="1.0" encoding="UTF-8" standalone="no"?><svg xmlns="http://www.w3.org/2000/svg" xmlns:xlink="http://www.w3.org/1999/xlink" contentScriptType="application/ecmascript" contentStyleType="text/css" height="91px" preserveAspectRatio="none" style="width:246px;height:91px;" version="1.1" viewBox="0 0 246 91" width="246px" zoomAndPan="magnify"><defs><filter height="300%" id="f12qb86c7c0x97" width="300%" x="-1" y="-1"><feGaussianBlur result="blurOut" stdDeviation="2.0"/><feColorMatrix in="blurOut" result="blurOut2" type="matrix" values="0 0 0 0 0 0 0 0 0 0 0 0 0 0 0 0 0 0 .4 0"/><feOffset dx="4.0" dy="4.0" in="blurOut2" result="blurOut3"/><feBlend in="SourceGraphic" in2="blurOut3" mode="normal"/></filter></defs><g><!--MD5=[219898b7f8d5c969bf80bd91dd512ee8]
class MyService--><rect fill="#DDEEE8" filter="url(#f12qb86c7c0x97)" height="73.6094" id="MyService" style="stroke: #225C4D; stroke-width: 1.5;" width="228" x="7" y="7"/><ellipse cx="86.25" cy="23" fill="#ADD1B2" rx="11" ry="11" style="stroke: #225C4D; stroke-width: 1.0;"/><path d="M89.2188,28.6406 Q88.6406,28.9375 88,29.0781 Q87.3594,29.2344 86.6563,29.2344 Q84.1563,29.2344 82.8281,27.5938 Q81.5156,25.9375 81.5156,22.8125 Q81.5156,19.6875 82.8281,18.0313 Q84.1563,16.375 86.6563,16.375 Q87.3594,16.375 88,16.5313 Q88.6563,16.6875 89.2188,16.9844 L89.2188,19.7031 Q88.5938,19.125 88,18.8594 Q87.4063,18.5781 86.7813,18.5781 Q85.4375,18.5781 84.75,19.6563 Q84.0625,20.7188 84.0625,22.8125 Q84.0625,24.9063 84.75,25.9844 Q85.4375,27.0469 86.7813,27.0469 Q87.4063,27.0469 88,26.7813 Q88.5938,26.5 89.2188,25.9219 L89.2188,28.6406 Z "/><text fill="#000000" font-family="sans-serif" font-size="12" lengthAdjust="spacingAndGlyphs" textLength="61" x="106.75" y="27.1543">MyService</text><line style="stroke: #225C4D; stroke-width: 1.5;" x1="8" x2="234" y1="39" y2="39"/><line style="stroke: #225C4D; stroke-width: 1.5;" x1="8" x2="234" y1="47" y2="47"/><text fill="#000000" font-family="sans-serif" font-size="11" lengthAdjust="spacingAndGlyphs" textLength="175" x="13" y="61.2104">getUsedService(): UsedService</text><text fill="#000000" font-family="sans-serif" font-size="11" lengthAdjust="spacingAndGlyphs" textLength="216" x="13" y="74.0151">setUsedService(service: UsedService)</text><!--MD5=[24e2b9d9ff6fe3355d9a9750a9326efb]
@startuml
skinparam class {
 BackgroundColor #DDEEE8
 BorderColor #225C4D
 ArrowColor #225C4D
 }
class MyService {
    getUsedService(): UsedService
    setUsedService(service: UsedService)
}
@enduml

PlantUML version 1.2019.12(Sun Nov 03 11:24:54 CET 2019)
(APACHE source distribution)
Java Runtime: OpenJDK Runtime Environment
JVM: OpenJDK 64-Bit Server VM
Java Version: 11.0.18+10-post-Debian-1deb11u1
Operating System: Linux
Default Encoding: UTF-8
Language: en
Country: DK
--></g></svg>