<?xml version="1.0" encoding="UTF-8" standalone="no"?><svg xmlns="http://www.w3.org/2000/svg" xmlns:xlink="http://www.w3.org/1999/xlink" contentScriptType="application/ecmascript" contentStyleType="text/css" height="175px" preserveAspectRatio="none" style="width:953px;height:175px;" version="1.1" viewBox="0 0 953 175" width="953px" zoomAndPan="magnify"><defs><filter height="300%" id="f1qtflgxi0kb4i" width="300%" x="-1" y="-1"><feGaussianBlur result="blurOut" stdDeviation="2.0"/><feColorMatrix in="blurOut" result="blurOut2" type="matrix" values="0 0 0 0 0 0 0 0 0 0 0 0 0 0 0 0 0 0 .4 0"/><feOffset dx="4.0" dy="4.0" in="blurOut2" result="blurOut3"/><feBlend in="SourceGraphic" in2="blurOut3" mode="normal"/></filter></defs><g><!--MD5=[5d0a77e8f66918aa15fe0099dd6d4ba9]
class Environment--><rect fill="#DDEEE8" filter="url(#f1qtflgxi0kb4i)" height="48" id="Environment" style="stroke: #225C4D; stroke-width: 1.5;" width="105" x="37.5" y="116"/><ellipse cx="52.5" cy="132" fill="#B4A7E5" rx="11" ry="11" style="stroke: #225C4D; stroke-width: 1.0;"/><path d="M48.4219,127.7656 L48.4219,125.6094 L55.8125,125.6094 L55.8125,127.7656 L53.3438,127.7656 L53.3438,135.8438 L55.8125,135.8438 L55.8125,138 L48.4219,138 L48.4219,135.8438 L50.8906,135.8438 L50.8906,127.7656 L48.4219,127.7656 Z "/><text fill="#000000" font-family="sans-serif" font-size="12" font-style="italic" lengthAdjust="spacingAndGlyphs" textLength="73" x="66.5" y="136.1543">Environment</text><line style="stroke: #225C4D; stroke-width: 1.5;" x1="38.5" x2="141.5" y1="148" y2="148"/><line style="stroke: #225C4D; stroke-width: 1.5;" x1="38.5" x2="141.5" y1="156" y2="156"/><!--MD5=[fa3247601880d98cad4fdc3c68e5450c]
class PropertySource--><rect fill="#DDEEE8" filter="url(#f1qtflgxi0kb4i)" height="48" id="PropertySource" style="stroke: #225C4D; stroke-width: 1.5;" width="125" x="486.5" y="8"/><ellipse cx="501.5" cy="24" fill="#A9DCDF" rx="11" ry="11" style="stroke: #225C4D; stroke-width: 1.0;"/><path d="M501.6094,19.3438 L500.4531,24.4219 L502.7813,24.4219 L501.6094,19.3438 Z M500.125,17.1094 L503.1094,17.1094 L506.4688,29.5 L504.0156,29.5 L503.25,26.4375 L499.9688,26.4375 L499.2188,29.5 L496.7813,29.5 L500.125,17.1094 Z "/><text fill="#000000" font-family="sans-serif" font-size="12" font-style="italic" lengthAdjust="spacingAndGlyphs" textLength="93" x="515.5" y="28.1543">PropertySource</text><line style="stroke: #225C4D; stroke-width: 1.5;" x1="487.5" x2="610.5" y1="40" y2="40"/><line style="stroke: #225C4D; stroke-width: 1.5;" x1="487.5" x2="610.5" y1="48" y2="48"/><!--MD5=[54f774d8a9c31c1847379da3b5596fa8]
class StandardEnvironment--><rect fill="#DDEEE8" filter="url(#f1qtflgxi0kb4i)" height="48" id="StandardEnvironment" style="stroke: #225C4D; stroke-width: 1.5;" width="168" x="6" y="8"/><ellipse cx="21" cy="24" fill="#ADD1B2" rx="11" ry="11" style="stroke: #225C4D; stroke-width: 1.0;"/><path d="M23.9688,29.6406 Q23.3906,29.9375 22.75,30.0781 Q22.1094,30.2344 21.4063,30.2344 Q18.9063,30.2344 17.5781,28.5938 Q16.2656,26.9375 16.2656,23.8125 Q16.2656,20.6875 17.5781,19.0313 Q18.9063,17.375 21.4063,17.375 Q22.1094,17.375 22.75,17.5313 Q23.4063,17.6875 23.9688,17.9844 L23.9688,20.7031 Q23.3438,20.125 22.75,19.8594 Q22.1563,19.5781 21.5313,19.5781 Q20.1875,19.5781 19.5,20.6563 Q18.8125,21.7188 18.8125,23.8125 Q18.8125,25.9063 19.5,26.9844 Q20.1875,28.0469 21.5313,28.0469 Q22.1563,28.0469 22.75,27.7813 Q23.3438,27.5 23.9688,26.9219 L23.9688,29.6406 Z "/><text fill="#000000" font-family="sans-serif" font-size="12" lengthAdjust="spacingAndGlyphs" textLength="136" x="35" y="28.1543">StandardEnvironment</text><line style="stroke: #225C4D; stroke-width: 1.5;" x1="7" x2="173" y1="40" y2="40"/><line style="stroke: #225C4D; stroke-width: 1.5;" x1="7" x2="173" y1="48" y2="48"/><!--MD5=[61a8386bcd6818adc9840219d682dcf3]
class PropertySourcesPropertyResolver--><rect fill="#DDEEE8" filter="url(#f1qtflgxi0kb4i)" height="48" id="PropertySourcesPropertyResolver" style="stroke: #225C4D; stroke-width: 1.5;" width="242" x="209" y="8"/><ellipse cx="224" cy="24" fill="#ADD1B2" rx="11" ry="11" style="stroke: #225C4D; stroke-width: 1.0;"/><path d="M226.9688,29.6406 Q226.3906,29.9375 225.75,30.0781 Q225.1094,30.2344 224.4063,30.2344 Q221.9063,30.2344 220.5781,28.5938 Q219.2656,26.9375 219.2656,23.8125 Q219.2656,20.6875 220.5781,19.0313 Q221.9063,17.375 224.4063,17.375 Q225.1094,17.375 225.75,17.5313 Q226.4063,17.6875 226.9688,17.9844 L226.9688,20.7031 Q226.3438,20.125 225.75,19.8594 Q225.1563,19.5781 224.5313,19.5781 Q223.1875,19.5781 222.5,20.6563 Q221.8125,21.7188 221.8125,23.8125 Q221.8125,25.9063 222.5,26.9844 Q223.1875,28.0469 224.5313,28.0469 Q225.1563,28.0469 225.75,27.7813 Q226.3438,27.5 226.9688,26.9219 L226.9688,29.6406 Z "/><text fill="#000000" font-family="sans-serif" font-size="12" lengthAdjust="spacingAndGlyphs" textLength="210" x="238" y="28.1543">PropertySourcesPropertyResolver</text><line style="stroke: #225C4D; stroke-width: 1.5;" x1="210" x2="450" y1="40" y2="40"/><line style="stroke: #225C4D; stroke-width: 1.5;" x1="210" x2="450" y1="48" y2="48"/><!--MD5=[5f6d914fcadfae52b28794140c25a368]
class MapPropertySource--><rect fill="#DDEEE8" filter="url(#f1qtflgxi0kb4i)" height="48" id="MapPropertySource" style="stroke: #225C4D; stroke-width: 1.5;" width="155" x="324.5" y="116"/><ellipse cx="339.5" cy="132" fill="#ADD1B2" rx="11" ry="11" style="stroke: #225C4D; stroke-width: 1.0;"/><path d="M342.4688,137.6406 Q341.8906,137.9375 341.25,138.0781 Q340.6094,138.2344 339.9063,138.2344 Q337.4063,138.2344 336.0781,136.5938 Q334.7656,134.9375 334.7656,131.8125 Q334.7656,128.6875 336.0781,127.0313 Q337.4063,125.375 339.9063,125.375 Q340.6094,125.375 341.25,125.5313 Q341.9063,125.6875 342.4688,125.9844 L342.4688,128.7031 Q341.8438,128.125 341.25,127.8594 Q340.6563,127.5781 340.0313,127.5781 Q338.6875,127.5781 338,128.6563 Q337.3125,129.7188 337.3125,131.8125 Q337.3125,133.9063 338,134.9844 Q338.6875,136.0469 340.0313,136.0469 Q340.6563,136.0469 341.25,135.7813 Q341.8438,135.5 342.4688,134.9219 L342.4688,137.6406 Z "/><text fill="#000000" font-family="sans-serif" font-size="12" lengthAdjust="spacingAndGlyphs" textLength="123" x="353.5" y="136.1543">MapPropertySource</text><line style="stroke: #225C4D; stroke-width: 1.5;" x1="325.5" x2="478.5" y1="148" y2="148"/><line style="stroke: #225C4D; stroke-width: 1.5;" x1="325.5" x2="478.5" y1="156" y2="156"/><!--MD5=[038604db2502a7c38b1e932e95482dea]
class SystemEnvironmentPropertySource--><rect fill="#DDEEE8" filter="url(#f1qtflgxi0kb4i)" height="48" id="SystemEnvironmentPropertySource" style="stroke: #225C4D; stroke-width: 1.5;" width="252" x="690" y="116"/><ellipse cx="705" cy="132" fill="#ADD1B2" rx="11" ry="11" style="stroke: #225C4D; stroke-width: 1.0;"/><path d="M707.9688,137.6406 Q707.3906,137.9375 706.75,138.0781 Q706.1094,138.2344 705.4063,138.2344 Q702.9063,138.2344 701.5781,136.5938 Q700.2656,134.9375 700.2656,131.8125 Q700.2656,128.6875 701.5781,127.0313 Q702.9063,125.375 705.4063,125.375 Q706.1094,125.375 706.75,125.5313 Q707.4063,125.6875 707.9688,125.9844 L707.9688,128.7031 Q707.3438,128.125 706.75,127.8594 Q706.1563,127.5781 705.5313,127.5781 Q704.1875,127.5781 703.5,128.6563 Q702.8125,129.7188 702.8125,131.8125 Q702.8125,133.9063 703.5,134.9844 Q704.1875,136.0469 705.5313,136.0469 Q706.1563,136.0469 706.75,135.7813 Q707.3438,135.5 707.9688,134.9219 L707.9688,137.6406 Z "/><text fill="#000000" font-family="sans-serif" font-size="12" lengthAdjust="spacingAndGlyphs" textLength="220" x="719" y="136.1543">SystemEnvironmentPropertySource</text><line style="stroke: #225C4D; stroke-width: 1.5;" x1="691" x2="941" y1="148" y2="148"/><line style="stroke: #225C4D; stroke-width: 1.5;" x1="691" x2="941" y1="156" y2="156"/><path d="M515,127.5 L515,136 L479.56,140 L515,144 L515,152.6328 A0,0 0 0 0 515,152.6328 L655,152.6328 A0,0 0 0 0 655,152.6328 L655,137.5 L645,127.5 L515,127.5 A0,0 0 0 0 515,127.5 " fill="#FBFB77" filter="url(#f1qtflgxi0kb4i)" style="stroke: #A80036; stroke-width: 1.0;"/><path d="M645,127.5 L645,137.5 L655,137.5 L645,127.5 " fill="#FBFB77" style="stroke: #A80036; stroke-width: 1.0;"/><text fill="#000000" font-family="sans-serif" font-size="13" lengthAdjust="spacingAndGlyphs" textLength="119" x="521" y="144.5669">System-Properties</text><!--MD5=[eac8c6627fc576b51c443f5f06ae9ff8]
link StandardEnvironment to PropertySourcesPropertyResolver--><path d="M174.38,32 C184.12,32 193.87,32 203.62,32 " fill="none" id="StandardEnvironment-&gt;PropertySourcesPropertyResolver" style="stroke: #225C4D; stroke-width: 1.0;"/><polygon fill="#225C4D" points="208.72,32,199.72,28,203.72,32,199.72,36,208.72,32" style="stroke: #225C4D; stroke-width: 1.0;"/><text fill="#000000" font-family="sans-serif" font-size="13" lengthAdjust="spacingAndGlyphs" textLength="8" x="193.0858" y="28.6139">1</text><!--MD5=[4a7211a6dc05a5c174205d86c10f8bf4]
link PropertySourcesPropertyResolver to PropertySource--><path d="M451.05,32 C461.04,32 471.03,32 481.02,32 " fill="none" id="PropertySourcesPropertyResolver-&gt;PropertySource" style="stroke: #225C4D; stroke-width: 1.0;"/><polygon fill="#225C4D" points="486.25,32,477.25,28,481.25,32,477.25,36,486.25,32" style="stroke: #225C4D; stroke-width: 1.0;"/><text fill="#000000" font-family="sans-serif" font-size="13" lengthAdjust="spacingAndGlyphs" textLength="24" x="459.0217" y="28.0312">0..n</text><!--MD5=[a00b8429f86b6f34d48292e9706306cb]
link StandardEnvironment to Environment--><path d="M90,56 C90,67.59 90,82.03 90,95.6 " fill="none" id="StandardEnvironment-&gt;Environment" style="stroke: #225C4D; stroke-width: 1.0; stroke-dasharray: 7.0,7.0;"/><polygon fill="none" points="97,95.68,90,115.68,83,95.68,97,95.68" style="stroke: #225C4D; stroke-width: 1.0;"/><!--MD5=[971583019f605a18d7531eb0ac910511]
reverse link PropertySource to MapPropertySource--><path d="M500.82,67.75 C478.92,83.53 453.61,101.78 434.09,115.86 " fill="none" id="PropertySource&lt;-MapPropertySource" style="stroke: #225C4D; stroke-width: 1.0;"/><polygon fill="none" points="496.79,62.02,517.1,56,504.98,73.38,496.79,62.02" style="stroke: #225C4D; stroke-width: 1.0;"/><!--MD5=[b1a1fc560280e65c0f5b77ede0f554ee]
reverse link PropertySource to SystemEnvironmentPropertySource--><path d="M625.53,63.38 C667.59,80.08 718.94,100.47 757.72,115.86 " fill="none" id="PropertySource&lt;-SystemEnvironmentPropertySource" style="stroke: #225C4D; stroke-width: 1.0;"/><polygon fill="none" points="622.94,69.89,606.94,56,628.11,56.87,622.94,69.89" style="stroke: #225C4D; stroke-width: 1.0;"/><!--MD5=[40f363e60905e340f139c59975e13463]
@startuml
skinparam class {
 BackgroundColor #DDEEE8
 BorderColor #225C4D
 ArrowColor #225C4D
 }
interface Environment
abstract class PropertySource

StandardEnvironment -> "1" PropertySourcesPropertyResolver
PropertySourcesPropertyResolver -> "0..n" PropertySource
StandardEnvironment ..|> Environment

PropertySource <|- - MapPropertySource
PropertySource  <|- - SystemEnvironmentPropertySource

note right of MapPropertySource: System-Properties
@enduml

PlantUML version 1.2019.12(Sun Nov 03 11:24:54 CET 2019)
(APACHE source distribution)
Java Runtime: OpenJDK Runtime Environment
JVM: OpenJDK 64-Bit Server VM
Java Version: 11.0.18+10-post-Debian-1deb11u1
Operating System: Linux
Default Encoding: UTF-8
Language: en
Country: DK
--></g></svg>