<?xml version="1.0" encoding="UTF-8" standalone="no"?><svg xmlns="http://www.w3.org/2000/svg" xmlns:xlink="http://www.w3.org/1999/xlink" contentScriptType="application/ecmascript" contentStyleType="text/css" height="126px" preserveAspectRatio="none" style="width:382px;height:126px;" version="1.1" viewBox="0 0 382 126" width="382px" zoomAndPan="magnify"><defs><filter height="300%" id="fslivy9kr0em7" width="300%" x="-1" y="-1"><feGaussianBlur result="blurOut" stdDeviation="2.0"/><feColorMatrix in="blurOut" result="blurOut2" type="matrix" values="0 0 0 0 0 0 0 0 0 0 0 0 0 0 0 0 0 0 .4 0"/><feOffset dx="4.0" dy="4.0" in="blurOut2" result="blurOut3"/><feBlend in="SourceGraphic" in2="blurOut3" mode="normal"/></filter></defs><g><!--MD5=[b19c65fa9243f7f51a15e68829454f1f]
class cfg--><polygon fill="#DDEEE8" filter="url(#fslivy9kr0em7)" points="152,8,152,8.2102,162.1875,7.5857,172.375,8.1933,182.5625,8.3997,192.75,7.2866,202.9375,7.9223,213.125,7.5735,223.3125,7.6165,233.5,7.9318,243.6875,7.3086,253.875,8.5536,264.0625,7.3697,274.25,7.8022,284.4375,8.4319,294.625,7.9142,304.8125,8.0682,315,8,314.9894,8,315.0595,12.7938,315.0797,17.5875,315.1952,22.3813,315.2237,27.175,315,31.9688,315,32.648,304.8125,32.2234,294.625,32.4323,284.4375,32.671,274.25,31.2476,264.0625,32.6473,253.875,31.6722,243.6875,32.5026,233.5,31.4737,223.3125,31.9003,213.125,32.7104,202.9375,31.92,192.75,32.0741,182.5625,32.3074,172.375,32.385,162.1875,31.9648,152,31.9688,152.0957,31.9688,151.8092,27.175,152.0948,22.3813,152.1827,17.5875,152.1482,12.7938,152,8" style="stroke: #225C4D; stroke-width: 1.5;"/><text fill="#000000" font-family="sans-serif" font-size="12" lengthAdjust="spacingAndGlyphs" textLength="157" x="155" y="24.1387">Application Configuration</text><!--MD5=[3e8755ac2c43b2db06f6d8895da1c13c]
class di--><polygon fill="#DDEEE8" filter="url(#fslivy9kr0em7)" points="6,92,6,92.2102,16.0714,91.5857,26.1429,92.1933,36.2143,92.3997,46.2857,91.2866,56.3571,91.9223,66.4286,91.5735,76.5,91.6165,86.5714,91.9318,96.6429,91.3086,106.7143,92.5536,116.7857,91.3697,126.8571,91.8022,136.9286,92.4319,147,92,146.9714,92,147.0227,96.7938,146.9894,101.5875,147.0595,106.3813,147.0797,111.175,147,115.9688,147,116.5544,136.9286,116.6398,126.8571,116.648,116.7857,116.2234,106.7143,116.4323,96.6429,116.671,86.5714,115.2476,76.5,116.6473,66.4286,115.6722,56.3571,116.5026,46.2857,115.4737,36.2143,115.9003,26.1429,116.7104,16.0714,115.92,6,115.9688,6.0351,115.9688,6.1129,111.175,6.1387,106.3813,5.9987,101.5875,6.0957,96.7938,6,92" style="stroke: #225C4D; stroke-width: 1.5;"/><text fill="#000000" font-family="sans-serif" font-size="12" lengthAdjust="spacingAndGlyphs" textLength="135" x="9" y="108.1387">Dependency Injection</text><!--MD5=[e5ed2fcbff96bd03a55f8cf01186b818]
class sl--><polygon fill="#DDEEE8" filter="url(#fslivy9kr0em7)" points="182.5,92,182.5,92.2102,192.7,91.5857,202.9,92.1933,213.1,92.3997,223.3,91.2866,233.5,91.9223,243.7,91.5735,253.9,91.6165,264.1,91.9318,274.3,91.3086,284.5,92,284.6845,92,284.2899,96.7938,284.4341,101.5875,284.644,106.3813,284.4714,111.175,284.5,115.9688,284.5,116.037,274.3,115.9368,264.1,116.1473,253.9,116.2079,243.7,116.5544,233.5,116.6398,223.3,116.648,213.1,116.2234,202.9,116.4323,192.7,116.671,182.5,115.9688,182.2596,115.9688,182.7262,111.175,182.4012,106.3813,182.6779,101.5875,182.335,96.7938,182.5,92" style="stroke: #225C4D; stroke-width: 1.5;"/><text fill="#000000" font-family="sans-serif" font-size="12" lengthAdjust="spacingAndGlyphs" textLength="96" x="185.5" y="108.1387">Service Locator</text><!--MD5=[9d13402c7004803d833f8bc7509e01eb]
class fa--><polygon fill="#DDEEE8" filter="url(#fslivy9kr0em7)" points="319.5,92,319.5,92.2102,329.9,91.5857,340.3,92.1933,350.7,92.3997,361.1,91.2866,371.5,92,371.4741,92,371.3578,96.7938,371.3722,101.5875,371.4773,106.3813,371.2695,111.175,371.5,115.9688,371.5,116.5224,361.1,115.3385,350.7,115.771,340.3,116.4007,329.9,115.883,319.5,115.9688,319.5227,115.9688,319.4894,111.175,319.5595,106.3813,319.5797,101.5875,319.6952,96.7938,319.5,92" style="stroke: #225C4D; stroke-width: 1.5;"/><text fill="#000000" font-family="sans-serif" font-size="12" lengthAdjust="spacingAndGlyphs" textLength="46" x="322.5" y="108.1387">Factory</text><!--MD5=[44e82678aa60094764b6fa79a95e01c9]
reverse link cfg to sl--><path d="M233.5,52.2 L233.5934,52.2 L233.3159,60.13 L233.5859,68.06 L233.6776,75.99 L233.1829,83.92 L233.5,91.85 " fill="none" style="stroke: #225C4D; stroke-width: 1.0;"/><polygon fill="none" points="226.5,52.06,226.5661,52.0831,227.7696,48.0144,229.3608,44.0813,230.8257,40.104,231.8756,35.9814,233.5,32.06,233.4755,32.0514,234.7658,36.013,236.1793,40.0178,237.6786,44.0525,238.8825,47.9839,240.5,52.06,240.5,52.2445,237.7,51.8499,234.9,51.9941,232.1,52.204,229.3,52.0314,226.5,52.06" style="stroke: #225C4D; stroke-width: 1.0;"/><!--MD5=[fcad6d476b1e0125c37fddd81c670e26]
reverse link cfg to fa--><path d="M264.78,43.9 L264.9455,44.1261 L272.6412,49.448 L281.3072,56.0954 L289.6573,62.3112 L296.9681,67.1075 L305.6563,73.7851 L313.5691,79.4037 L321.7905,85.4437 L330.28,91.85 " fill="none" style="stroke: #225C4D; stroke-width: 1.0;"/><polygon fill="none" points="260.61,49.52,260.6677,49.5597,258.0942,45.9497,255.8591,42.5725,253.5138,39.1195,250.8061,35.4172,248.6,32.06,248.5925,32.0352,252.6146,33.158,256.6748,34.4057,260.7614,35.7403,264.7569,36.7755,268.88,38.23,269.0289,38.3391,267.0565,40.3638,265.5188,42.707,264.0342,45.0891,262.2409,47.2451,260.61,49.52" style="stroke: #225C4D; stroke-width: 1.0;"/><!--MD5=[a0912d66f1677232bc2610c61a6c3fc3]
reverse link cfg to di--><path d="M194.46,41.39 L194.5897,41.6384 L185.3979,45.5003 L176.9666,50.8184 L168.2876,55.6623 L158.7942,58.9469 L150.3802,64.2982 L141.3585,68.486 L132.5787,73.1368 L123.967,78.1095 L114.7759,81.9729 L106.7381,88.0443 L97.59,91.99 " fill="none" style="stroke: #225C4D; stroke-width: 1.0;"/><polygon fill="none" points="191.36,35.11,191.3701,35.1793,195.5341,34.3633,199.7573,33.9538,203.9612,33.4118,208.1018,32.4347,212.33,32.06,212.3111,32.0423,209.3283,35.0548,206.4407,38.1566,203.6194,41.3205,200.5699,44.2704,197.84,47.52,198.0036,47.6054,196.3578,44.9408,195.1896,42.5255,194.0796,40.1406,192.6307,37.5788,191.36,35.11" style="stroke: #225C4D; stroke-width: 1.0;"/><!--MD5=[c2f845d0c644074957ad05070a02c19f]
@startuml
skinparam class {
 BackgroundColor #DDEEE8
 BorderColor #225C4D
 ArrowColor #225C4D
 }
skinparam handwritten true

class "Application Configuration" as cfg
class "Dependency Injection" as di
class "Service Locator" as sl
class "Factory" as fa

cfg <|- - sl
cfg <|- - fa
cfg <|- - di


hide members
hide circle
@enduml

PlantUML version 1.2019.12(Sun Nov 03 11:24:54 CET 2019)
(APACHE source distribution)
Java Runtime: OpenJDK Runtime Environment
JVM: OpenJDK 64-Bit Server VM
Java Version: 17.0.6+10-Debian-1deb11u1
Operating System: Linux
Default Encoding: UTF-8
Language: de
Country: DE
--></g></svg>