<?xml version="1.0" encoding="UTF-8" standalone="no"?><svg xmlns="http://www.w3.org/2000/svg" xmlns:xlink="http://www.w3.org/1999/xlink" contentScriptType="application/ecmascript" contentStyleType="text/css" height="361px" preserveAspectRatio="none" style="width:540px;height:361px;" version="1.1" viewBox="0 0 540 361" width="540px" zoomAndPan="magnify"><defs><filter height="300%" id="f1uib2muqr2sod" width="300%" x="-1" y="-1"><feGaussianBlur result="blurOut" stdDeviation="2.0"/><feColorMatrix in="blurOut" result="blurOut2" type="matrix" values="0 0 0 0 0 0 0 0 0 0 0 0 0 0 0 0 0 0 .4 0"/><feOffset dx="4.0" dy="4.0" in="blurOut2" result="blurOut3"/><feBlend in="SourceGraphic" in2="blurOut3" mode="normal"/></filter></defs><g><rect fill="#FEFECE" filter="url(#f1uib2muqr2sod)" height="30.2969" style="stroke: #A80036; stroke-width: 1.5;" width="100" x="345" y="77.4297"/><text fill="#000000" font-family="sans-serif" font-size="14" lengthAdjust="spacingAndGlyphs" textLength="86" x="352" y="97.4248">Subscription</text><rect fill="#FFFFFF" filter="url(#f1uib2muqr2sod)" height="116.5313" style="stroke: #000000; stroke-width: 2.0;" width="516" x="13" y="158.8594"/><rect fill="#FFFFFF" filter="url(#f1uib2muqr2sod)" height="46.2656" style="stroke: #000000; stroke-width: 2.0;" width="322" x="23" y="222.125"/><line style="stroke: #A80036; stroke-width: 1.0; stroke-dasharray: 5.0,5.0;" x1="79" x2="79" y1="38.2969" y2="321.5234"/><line style="stroke: #A80036; stroke-width: 1.0; stroke-dasharray: 5.0,5.0;" x1="294" x2="294" y1="38.2969" y2="321.5234"/><line style="stroke: #A80036; stroke-width: 1.0; stroke-dasharray: 5.0,5.0;" x1="397" x2="397" y1="110.0781" y2="321.5234"/><rect fill="#FEFECE" filter="url(#f1uib2muqr2sod)" height="30.2969" style="stroke: #A80036; stroke-width: 1.5;" width="88" x="33" y="3"/><text fill="#000000" font-family="sans-serif" font-size="14" lengthAdjust="spacingAndGlyphs" textLength="74" x="40" y="22.9951">Subscriber</text><rect fill="#FEFECE" filter="url(#f1uib2muqr2sod)" height="30.2969" style="stroke: #A80036; stroke-width: 1.5;" width="88" x="33" y="320.5234"/><text fill="#000000" font-family="sans-serif" font-size="14" lengthAdjust="spacingAndGlyphs" textLength="74" x="40" y="340.5186">Subscriber</text><rect fill="#FEFECE" filter="url(#f1uib2muqr2sod)" height="30.2969" style="stroke: #A80036; stroke-width: 1.5;" width="78" x="253" y="3"/><text fill="#000000" font-family="sans-serif" font-size="14" lengthAdjust="spacingAndGlyphs" textLength="64" x="260" y="22.9951">Publisher</text><rect fill="#FEFECE" filter="url(#f1uib2muqr2sod)" height="30.2969" style="stroke: #A80036; stroke-width: 1.5;" width="78" x="253" y="320.5234"/><text fill="#000000" font-family="sans-serif" font-size="14" lengthAdjust="spacingAndGlyphs" textLength="64" x="260" y="340.5186">Publisher</text><rect fill="#FEFECE" filter="url(#f1uib2muqr2sod)" height="30.2969" style="stroke: #A80036; stroke-width: 1.5;" width="100" x="345" y="320.5234"/><text fill="#000000" font-family="sans-serif" font-size="14" lengthAdjust="spacingAndGlyphs" textLength="86" x="352" y="340.5186">Subscription</text><polygon fill="#225C4D" points="282,65.4297,292,69.4297,282,73.4297,286,69.4297" style="stroke: #225C4D; stroke-width: 1.0;"/><line style="stroke: #225C4D; stroke-width: 1.0;" x1="79" x2="288" y1="69.4297" y2="69.4297"/><text fill="#000000" font-family="sans-serif" font-size="13" lengthAdjust="spacingAndGlyphs" textLength="154" x="86" y="64.3638">subscribe(s: Subscriber)</text><polygon fill="#225C4D" points="333,94.5625,343,98.5625,333,102.5625,337,98.5625" style="stroke: #225C4D; stroke-width: 1.0;"/><line style="stroke: #225C4D; stroke-width: 1.0;" x1="294" x2="339" y1="98.5625" y2="98.5625"/><text fill="#000000" font-family="sans-serif" font-size="13" lengthAdjust="spacingAndGlyphs" textLength="25" x="301" y="93.4966">new</text><rect fill="#FEFECE" filter="url(#f1uib2muqr2sod)" height="30.2969" style="stroke: #A80036; stroke-width: 1.5;" width="100" x="345" y="77.4297"/><text fill="#000000" font-family="sans-serif" font-size="14" lengthAdjust="spacingAndGlyphs" textLength="86" x="352" y="97.4248">Subscription</text><polygon fill="#225C4D" points="90,139.8594,80,143.8594,90,147.8594,86,143.8594" style="stroke: #225C4D; stroke-width: 1.0;"/><line style="stroke: #225C4D; stroke-width: 1.0;" x1="84" x2="293" y1="143.8594" y2="143.8594"/><text fill="#000000" font-family="sans-serif" font-size="13" lengthAdjust="spacingAndGlyphs" textLength="191" x="96" y="138.7935">onSubscribe(sn: Subscription)</text><path d="M13,158.8594 L218,158.8594 L218,165.8594 L208,175.8594 L13,175.8594 L13,158.8594 " fill="#EEEEEE" style="stroke: #000000; stroke-width: 1.0;"/><rect fill="none" height="116.5313" style="stroke: #000000; stroke-width: 2.0;" width="516" x="13" y="158.8594"/><text fill="#000000" font-family="sans-serif" font-size="13" font-weight="bold" lengthAdjust="spacingAndGlyphs" textLength="160" x="28" y="171.9263">repeat until complete</text><polygon fill="#225C4D" points="385,198.125,395,202.125,385,206.125,389,202.125" style="stroke: #225C4D; stroke-width: 1.0;"/><line style="stroke: #225C4D; stroke-width: 1.0;" x1="79" x2="391" y1="202.125" y2="202.125"/><text fill="#000000" font-family="sans-serif" font-size="13" lengthAdjust="spacingAndGlyphs" textLength="67" x="86" y="197.0591">request(n)</text><path d="M402,180.9922 L402,205.9922 L510,205.9922 L510,190.9922 L500,180.9922 L402,180.9922 " fill="#FBFB77" filter="url(#f1uib2muqr2sod)" style="stroke: #A80036; stroke-width: 1.0;"/><path d="M500,180.9922 L500,190.9922 L510,190.9922 L500,180.9922 " fill="#FBFB77" style="stroke: #A80036; stroke-width: 1.0;"/><text fill="#000000" font-family="sans-serif" font-size="13" lengthAdjust="spacingAndGlyphs" textLength="87" x="408" y="198.0591">Backpressure</text><path d="M23,222.125 L100,222.125 L100,229.125 L90,239.125 L23,239.125 L23,222.125 " fill="#EEEEEE" style="stroke: #000000; stroke-width: 1.0;"/><rect fill="none" height="46.2656" style="stroke: #000000; stroke-width: 2.0;" width="322" x="23" y="222.125"/><text fill="#000000" font-family="sans-serif" font-size="13" font-weight="bold" lengthAdjust="spacingAndGlyphs" textLength="32" x="38" y="235.1919">loop</text><text fill="#000000" font-family="sans-serif" font-size="11" font-weight="bold" lengthAdjust="spacingAndGlyphs" textLength="57" x="115" y="234.3354">[n times]</text><polygon fill="#225C4D" points="90,256.3906,80,260.3906,90,264.3906,86,260.3906" style="stroke: #225C4D; stroke-width: 1.0;"/><line style="stroke: #225C4D; stroke-width: 1.0;" x1="84" x2="293" y1="260.3906" y2="260.3906"/><text fill="#000000" font-family="sans-serif" font-size="13" lengthAdjust="spacingAndGlyphs" textLength="85" x="96" y="255.3247">onNext(item)</text><polygon fill="#225C4D" points="90,299.5234,80,303.5234,90,307.5234,86,303.5234" style="stroke: #225C4D; stroke-width: 1.0;"/><line style="stroke: #225C4D; stroke-width: 1.0;" x1="84" x2="293" y1="303.5234" y2="303.5234"/><text fill="#000000" font-family="sans-serif" font-size="13" lengthAdjust="spacingAndGlyphs" textLength="88" x="96" y="298.4575">onComplete()</text><!--MD5=[b6d151a95b6e907cf064e1c025260669]
@startuml
skinparam class {
 BackgroundColor #DDEEE8
 BorderColor #225C4D
 ArrowColor #225C4D
 }

Subscriber -> Publisher: subscribe(s: Subscriber)

create Subscription
Publisher -> Subscription: new

Publisher -> Subscriber : onSubscribe(sn: Subscription)

    group repeat until complete
        Subscriber -> Subscription : request(n)
        note right: Backpressure

            loop n times
                Publisher -> Subscriber : onNext(item)
            end
    end

Publisher -> Subscriber : onComplete()

@enduml

PlantUML version 1.2019.12(Sun Nov 03 11:24:54 CET 2019)
(APACHE source distribution)
Java Runtime: OpenJDK Runtime Environment
JVM: OpenJDK 64-Bit Server VM
Java Version: 11.0.18+10-post-Debian-1deb11u1
Operating System: Linux
Default Encoding: UTF-8
Language: en
Country: DK
--></g></svg>