<?xml version="1.0" encoding="UTF-8" standalone="no"?><svg xmlns="http://www.w3.org/2000/svg" xmlns:xlink="http://www.w3.org/1999/xlink" contentScriptType="application/ecmascript" contentStyleType="text/css" height="226px" preserveAspectRatio="none" style="width:716px;height:226px;" version="1.1" viewBox="0 0 716 226" width="716px" zoomAndPan="magnify"><defs><filter height="300%" id="f4ky8or5tvcmt" width="300%" x="-1" y="-1"><feGaussianBlur result="blurOut" stdDeviation="2.0"/><feColorMatrix in="blurOut" result="blurOut2" type="matrix" values="0 0 0 0 0 0 0 0 0 0 0 0 0 0 0 0 0 0 .4 0"/><feOffset dx="4.0" dy="4.0" in="blurOut2" result="blurOut3"/><feBlend in="SourceGraphic" in2="blurOut3" mode="normal"/></filter></defs><g><!--MD5=[13fb849c6dfc9273db4c5b2c7ac96a10]
class Publisher--><rect fill="#DDEEE8" filter="url(#f4ky8or5tvcmt)" height="60.8047" id="Publisher" style="stroke: #225C4D; stroke-width: 1.5;" width="279" x="6" y="27"/><ellipse cx="108.75" cy="43" fill="#B4A7E5" rx="11" ry="11" style="stroke: #225C4D; stroke-width: 1.0;"/><path d="M104.6719,38.7656 L104.6719,36.6094 L112.0625,36.6094 L112.0625,38.7656 L109.5938,38.7656 L109.5938,46.8438 L112.0625,46.8438 L112.0625,49 L104.6719,49 L104.6719,46.8438 L107.1406,46.8438 L107.1406,38.7656 L104.6719,38.7656 Z "/><text fill="#000000" font-family="sans-serif" font-size="12" font-style="italic" lengthAdjust="spacingAndGlyphs" textLength="54" x="129.25" y="47.1543">Publisher</text><rect fill="#FFFFFF" height="15.9688" style="stroke: #000000; stroke-width: 1.0; stroke-dasharray: 2.0,2.0;" width="9" x="279" y="24"/><text fill="#000000" font-family="sans-serif" font-size="12" font-style="italic" lengthAdjust="spacingAndGlyphs" textLength="7" x="280" y="36.1387">T</text><line style="stroke: #225C4D; stroke-width: 1.5;" x1="7" x2="284" y1="59" y2="59"/><line style="stroke: #225C4D; stroke-width: 1.5;" x1="7" x2="284" y1="67" y2="67"/><text fill="#000000" font-family="sans-serif" font-size="11" lengthAdjust="spacingAndGlyphs" textLength="267" x="12" y="81.2104">subscribe(subscriber : Subscriber&lt;? super T&gt;)</text><!--MD5=[4a7956b31a8e98f2c19ee52c969c2c46]
class Subscriber--><rect fill="#DDEEE8" filter="url(#f4ky8or5tvcmt)" height="99.2188" id="Subscriber" style="stroke: #225C4D; stroke-width: 1.5;" width="242" x="320.5" y="8"/><ellipse cx="399.25" cy="24" fill="#B4A7E5" rx="11" ry="11" style="stroke: #225C4D; stroke-width: 1.0;"/><path d="M395.1719,19.7656 L395.1719,17.6094 L402.5625,17.6094 L402.5625,19.7656 L400.0938,19.7656 L400.0938,27.8438 L402.5625,27.8438 L402.5625,30 L395.1719,30 L395.1719,27.8438 L397.6406,27.8438 L397.6406,19.7656 L395.1719,19.7656 Z "/><text fill="#000000" font-family="sans-serif" font-size="12" font-style="italic" lengthAdjust="spacingAndGlyphs" textLength="65" x="419.75" y="28.1543">Subscriber</text><rect fill="#FFFFFF" height="15.9688" style="stroke: #000000; stroke-width: 1.0; stroke-dasharray: 2.0,2.0;" width="9" x="556.5" y="5"/><text fill="#000000" font-family="sans-serif" font-size="12" font-style="italic" lengthAdjust="spacingAndGlyphs" textLength="7" x="557.5" y="17.1387">T</text><line style="stroke: #225C4D; stroke-width: 1.5;" x1="321.5" x2="561.5" y1="40" y2="40"/><line style="stroke: #225C4D; stroke-width: 1.5;" x1="321.5" x2="561.5" y1="48" y2="48"/><text fill="#000000" font-family="sans-serif" font-size="11" lengthAdjust="spacingAndGlyphs" textLength="230" x="326.5" y="62.2104">onSubscribe(subscription : Subscription)</text><text fill="#000000" font-family="sans-serif" font-size="11" lengthAdjust="spacingAndGlyphs" textLength="89" x="326.5" y="75.0151">onNext(item : T)</text><text fill="#000000" font-family="sans-serif" font-size="11" lengthAdjust="spacingAndGlyphs" textLength="131" x="326.5" y="87.8198">onError(th : Throwable)</text><text fill="#000000" font-family="sans-serif" font-size="11" lengthAdjust="spacingAndGlyphs" textLength="76" x="326.5" y="100.6245">onComplete()</text><!--MD5=[545507b7baa8aade59e57dce916f0187]
class Subscription--><rect fill="#DDEEE8" filter="url(#f4ky8or5tvcmt)" height="73.6094" id="Subscription" style="stroke: #225C4D; stroke-width: 1.5;" width="107" x="598" y="20.5"/><ellipse cx="613" cy="36.5" fill="#B4A7E5" rx="11" ry="11" style="stroke: #225C4D; stroke-width: 1.0;"/><path d="M608.9219,32.2656 L608.9219,30.1094 L616.3125,30.1094 L616.3125,32.2656 L613.8438,32.2656 L613.8438,40.3438 L616.3125,40.3438 L616.3125,42.5 L608.9219,42.5 L608.9219,40.3438 L611.3906,40.3438 L611.3906,32.2656 L608.9219,32.2656 Z "/><text fill="#000000" font-family="sans-serif" font-size="12" font-style="italic" lengthAdjust="spacingAndGlyphs" textLength="75" x="627" y="40.6543">Subscription</text><line style="stroke: #225C4D; stroke-width: 1.5;" x1="599" x2="704" y1="52.5" y2="52.5"/><line style="stroke: #225C4D; stroke-width: 1.5;" x1="599" x2="704" y1="60.5" y2="60.5"/><text fill="#000000" font-family="sans-serif" font-size="11" lengthAdjust="spacingAndGlyphs" textLength="86" x="604" y="74.7104">request(long n)</text><text fill="#000000" font-family="sans-serif" font-size="11" lengthAdjust="spacingAndGlyphs" textLength="44" x="604" y="87.5151">cancel()</text><!--MD5=[df152c2476dc0702efc46fc22338464c]
class Processor--><rect fill="#DDEEE8" filter="url(#f4ky8or5tvcmt)" height="48" id="Processor" style="stroke: #225C4D; stroke-width: 1.5;" width="112" x="237.5" y="167"/><ellipse cx="252.5" cy="183" fill="#B4A7E5" rx="11" ry="11" style="stroke: #225C4D; stroke-width: 1.0;"/><path d="M248.4219,178.7656 L248.4219,176.6094 L255.8125,176.6094 L255.8125,178.7656 L253.3438,178.7656 L253.3438,186.8438 L255.8125,186.8438 L255.8125,189 L248.4219,189 L248.4219,186.8438 L250.8906,186.8438 L250.8906,178.7656 L248.4219,178.7656 Z "/><text fill="#000000" font-family="sans-serif" font-size="12" font-style="italic" lengthAdjust="spacingAndGlyphs" textLength="57" x="266.5" y="187.1543">Processor</text><rect fill="#FFFFFF" height="15.9688" style="stroke: #000000; stroke-width: 1.0; stroke-dasharray: 2.0,2.0;" width="21" x="331.5" y="164"/><text fill="#000000" font-family="sans-serif" font-size="12" font-style="italic" lengthAdjust="spacingAndGlyphs" textLength="19" x="332.5" y="176.1387">T,R</text><line style="stroke: #225C4D; stroke-width: 1.5;" x1="238.5" x2="348.5" y1="199" y2="199"/><line style="stroke: #225C4D; stroke-width: 1.5;" x1="238.5" x2="348.5" y1="207" y2="207"/><!--MD5=[5bf1db1953d84b60c2964080b3daffa3]
link Subscriber to Processor--><path d="M386.81,107.09 C369.52,122.46 350.71,139.16 334.55,153.53 " fill="none" id="Subscriber-&gt;Processor" style="stroke: #225C4D; stroke-width: 1.0;"/><polygon fill="none" points="339.01,158.93,319.41,166.98,329.71,148.46,339.01,158.93" style="stroke: #225C4D; stroke-width: 1.0;"/><!--MD5=[63f3f945864584589a87c0345737a7e6]
link Publisher to Processor--><path d="M178.71,88.01 C200.46,107.33 229.03,132.72 252.23,153.33 " fill="none" id="Publisher-&gt;Processor" style="stroke: #225C4D; stroke-width: 1.0;"/><polygon fill="none" points="256.98,148.19,267.28,166.71,247.68,158.66,256.98,148.19" style="stroke: #225C4D; stroke-width: 1.0;"/><!--MD5=[32d6c1b27aeb9545c1155e00a7a89936]
@startuml
skinparam class {
 BackgroundColor #DDEEE8
 BorderColor #225C4D
 ArrowColor #225C4D
 }

interface Publisher<T> {
    subscribe(subscriber : Subscriber<? super T>)
}

interface Subscriber<T> {
    onSubscribe(subscription : Subscription)
    onNext(item : T)
    onError(th : Throwable)
    onComplete()
}

interface Subscription {
    request(long n)
    cancel()
}

interface Processor<T,R>

Subscriber - -|> Processor
Publisher - -|> Processor

@enduml

PlantUML version 1.2019.12(Sun Nov 03 11:24:54 CET 2019)
(APACHE source distribution)
Java Runtime: OpenJDK Runtime Environment
JVM: OpenJDK 64-Bit Server VM
Java Version: 11.0.18+10-post-Debian-1deb11u1
Operating System: Linux
Default Encoding: UTF-8
Language: en
Country: DK
--></g></svg>