<?xml version="1.0" encoding="UTF-8" standalone="no"?><svg xmlns="http://www.w3.org/2000/svg" xmlns:xlink="http://www.w3.org/1999/xlink" contentScriptType="application/ecmascript" contentStyleType="text/css" height="291px" preserveAspectRatio="none" style="width:340px;height:291px;" version="1.1" viewBox="0 0 340 291" width="340px" zoomAndPan="magnify"><defs><filter height="300%" id="fb8hqqkgt9roy" width="300%" x="-1" y="-1"><feGaussianBlur result="blurOut" stdDeviation="2.0"/><feColorMatrix in="blurOut" result="blurOut2" type="matrix" values="0 0 0 0 0 0 0 0 0 0 0 0 0 0 0 0 0 0 .4 0"/><feOffset dx="4.0" dy="4.0" in="blurOut2" result="blurOut3"/><feBlend in="SourceGraphic" in2="blurOut3" mode="normal"/></filter></defs><g><line style="stroke: #A80036; stroke-width: 1.0;" x1="103" x2="103" y1="65.2969" y2="180.6953"/><line style="stroke: #A80036; stroke-width: 1.0; stroke-dasharray: 1.0,4.0;" x1="103" x2="103" y1="180.6953" y2="208.6953"/><line style="stroke: #A80036; stroke-width: 1.0;" x1="103" x2="103" y1="208.6953" y2="218.6953"/><line style="stroke: #A80036; stroke-width: 1.0;" x1="221" x2="221" y1="65.2969" y2="180.6953"/><line style="stroke: #A80036; stroke-width: 1.0; stroke-dasharray: 1.0,4.0;" x1="221" x2="221" y1="180.6953" y2="208.6953"/><line style="stroke: #A80036; stroke-width: 1.0;" x1="221" x2="221" y1="208.6953" y2="218.6953"/><line style="stroke: #A80036; stroke-width: 1.0;" x1="310" x2="310" y1="65.2969" y2="180.6953"/><line style="stroke: #A80036; stroke-width: 1.0; stroke-dasharray: 1.0,4.0;" x1="310" x2="310" y1="180.6953" y2="208.6953"/><line style="stroke: #A80036; stroke-width: 1.0;" x1="310" x2="310" y1="208.6953" y2="218.6953"/><rect fill="#FEFECE" filter="url(#fb8hqqkgt9roy)" height="30.2969" style="stroke: #A80036; stroke-width: 1.5;" width="97" x="53" y="30"/><text fill="#000000" font-family="sans-serif" font-size="14" lengthAdjust="spacingAndGlyphs" textLength="83" x="60" y="49.9951">Anwendung</text><rect fill="#FEFECE" filter="url(#fb8hqqkgt9roy)" height="30.2969" style="stroke: #A80036; stroke-width: 1.5;" width="97" x="53" y="217.6953"/><text fill="#000000" font-family="sans-serif" font-size="14" lengthAdjust="spacingAndGlyphs" textLength="83" x="60" y="237.6904">Anwendung</text><text fill="#000000" font-family="sans-serif" font-size="14" lengthAdjust="spacingAndGlyphs" textLength="108" x="164" y="61.9951">Betriebssystem</text><ellipse cx="221" cy="33" fill="#FEFECE" filter="url(#fb8hqqkgt9roy)" rx="12" ry="12" style="stroke: #A80036; stroke-width: 2.0;"/><polygon fill="#A80036" points="217,21,223,16,221,21,223,26,217,21" style="stroke: #A80036; stroke-width: 1.0;"/><text fill="#000000" font-family="sans-serif" font-size="14" lengthAdjust="spacingAndGlyphs" textLength="108" x="164" y="230.6904">Betriebssystem</text><ellipse cx="221" cy="249.9922" fill="#FEFECE" filter="url(#fb8hqqkgt9roy)" rx="12" ry="12" style="stroke: #A80036; stroke-width: 2.0;"/><polygon fill="#A80036" points="217,237.9922,223,232.9922,221,237.9922,223,242.9922,217,237.9922" style="stroke: #A80036; stroke-width: 1.0;"/><text fill="#000000" font-family="sans-serif" font-size="14" lengthAdjust="spacingAndGlyphs" textLength="38" x="288" y="61.9951">Ger채t</text><path d="M292,13 C292,3 310,3 310,3 C310,3 328,3 328,13 L328,39 C328,49 310,49 310,49 C310,49 292,49 292,39 L292,13 " fill="#FEFECE" filter="url(#fb8hqqkgt9roy)" style="stroke: #000000; stroke-width: 1.5;"/><path d="M292,13 C292,23 310,23 310,23 C310,23 328,23 328,13 " fill="none" style="stroke: #000000; stroke-width: 1.5;"/><text fill="#000000" font-family="sans-serif" font-size="14" lengthAdjust="spacingAndGlyphs" textLength="38" x="288" y="230.6904">Ger채t</text><path d="M292,243.9922 C292,233.9922 310,233.9922 310,233.9922 C310,233.9922 328,233.9922 328,243.9922 L328,269.9922 C328,279.9922 310,279.9922 310,279.9922 C310,279.9922 292,279.9922 292,269.9922 L292,243.9922 " fill="#FEFECE" filter="url(#fb8hqqkgt9roy)" style="stroke: #000000; stroke-width: 1.5;"/><path d="M292,243.9922 C292,253.9922 310,253.9922 310,253.9922 C310,253.9922 328,253.9922 328,243.9922 " fill="none" style="stroke: #000000; stroke-width: 1.5;"/><polygon fill="#225C4D" points="209,92.4297,219,96.4297,209,100.4297,213,96.4297" style="stroke: #225C4D; stroke-width: 1.0;"/><line style="stroke: #225C4D; stroke-width: 1.0;" x1="103.5" x2="215" y1="96.4297" y2="96.4297"/><text fill="#000000" font-family="sans-serif" font-size="13" lengthAdjust="spacingAndGlyphs" textLength="39" x="110.5" y="91.3638">read()</text><polygon fill="#225C4D" points="298,121.5625,308,125.5625,298,129.5625,302,125.5625" style="stroke: #225C4D; stroke-width: 1.0;"/><line style="stroke: #225C4D; stroke-width: 1.0;" x1="221" x2="304" y1="125.5625" y2="125.5625"/><text fill="#000000" font-family="sans-serif" font-size="13" lengthAdjust="spacingAndGlyphs" textLength="39" x="228" y="120.4966">read()</text><polygon fill="#225C4D" points="114.5,135.5625,104.5,139.5625,114.5,143.5625,110.5,139.5625" style="stroke: #225C4D; stroke-width: 1.0;"/><line style="stroke: #225C4D; stroke-width: 1.0; stroke-dasharray: 2.0,2.0;" x1="108.5" x2="220" y1="139.5625" y2="139.5625"/><polygon fill="#FBFB77" filter="url(#fb8hqqkgt9roy)" points="18,152.5625,190,152.5625,200,163.5625,190,175.5625,18,175.5625,8,163.5625,18,152.5625" style="stroke: #A80036; stroke-width: 1.0;"/><text fill="#000000" font-family="sans-serif" font-size="13" lengthAdjust="spacingAndGlyphs" textLength="168" x="20" y="168.6294">Kann sofort weiterarbeiten</text><!--MD5=[97191900b1c2d214e8259ed2cda7de5e]
@startuml
skinparam class {
 BackgroundColor #DDEEE8
 BorderColor #225C4D
 ArrowColor #225C4D
 }
participant Anwendung
control Betriebssystem
database Ger채t

Anwendung -> Betriebssystem : read()
Betriebssystem -> Ger채t : read()
Betriebssystem - -> Anwendung
hnote over Anwendung: Kann sofort weiterarbeiten
...
@enduml

PlantUML version 1.2019.12(Sun Nov 03 11:24:54 CET 2019)
(APACHE source distribution)
Java Runtime: OpenJDK Runtime Environment
JVM: OpenJDK 64-Bit Server VM
Java Version: 11.0.18+10-post-Debian-1deb11u1
Operating System: Linux
Default Encoding: UTF-8
Language: en
Country: DK
--></g></svg>