<?xml version="1.0" encoding="UTF-8" standalone="no"?><svg xmlns="http://www.w3.org/2000/svg" xmlns:xlink="http://www.w3.org/1999/xlink" contentScriptType="application/ecmascript" contentStyleType="text/css" height="175px" preserveAspectRatio="none" style="width:1111px;height:175px;" version="1.1" viewBox="0 0 1111 175" width="1111px" zoomAndPan="magnify"><defs><filter height="300%" id="f105vv0mmybhyk" width="300%" x="-1" y="-1"><feGaussianBlur result="blurOut" stdDeviation="2.0"/><feColorMatrix in="blurOut" result="blurOut2" type="matrix" values="0 0 0 0 0 0 0 0 0 0 0 0 0 0 0 0 0 0 .4 0"/><feOffset dx="4.0" dy="4.0" in="blurOut2" result="blurOut3"/><feBlend in="SourceGraphic" in2="blurOut3" mode="normal"/></filter></defs><g><!--MD5=[6b13f1b330d33795af281e5c1dfe1e98]
class Resource--><rect fill="#DDEEE8" filter="url(#f105vv0mmybhyk)" height="48" id="Resource" style="stroke: #225C4D; stroke-width: 1.5;" width="87" x="474.5" y="8"/><ellipse cx="489.5" cy="24" fill="#B4A7E5" rx="11" ry="11" style="stroke: #225C4D; stroke-width: 1.0;"/><path d="M485.4219,19.7656 L485.4219,17.6094 L492.8125,17.6094 L492.8125,19.7656 L490.3438,19.7656 L490.3438,27.8438 L492.8125,27.8438 L492.8125,30 L485.4219,30 L485.4219,27.8438 L487.8906,27.8438 L487.8906,19.7656 L485.4219,19.7656 Z "/><text fill="#000000" font-family="sans-serif" font-size="12" font-style="italic" lengthAdjust="spacingAndGlyphs" textLength="55" x="503.5" y="28.1543">Resource</text><line style="stroke: #225C4D; stroke-width: 1.5;" x1="475.5" x2="560.5" y1="40" y2="40"/><line style="stroke: #225C4D; stroke-width: 1.5;" x1="475.5" x2="560.5" y1="48" y2="48"/><!--MD5=[0f166caccd44578679f8e460bf758e11]
class UrlResource--><rect fill="#DDEEE8" filter="url(#f105vv0mmybhyk)" height="48" id="UrlResource" style="stroke: #225C4D; stroke-width: 1.5;" width="108" x="6" y="116"/><ellipse cx="21" cy="132" fill="#ADD1B2" rx="11" ry="11" style="stroke: #225C4D; stroke-width: 1.0;"/><path d="M23.9688,137.6406 Q23.3906,137.9375 22.75,138.0781 Q22.1094,138.2344 21.4063,138.2344 Q18.9063,138.2344 17.5781,136.5938 Q16.2656,134.9375 16.2656,131.8125 Q16.2656,128.6875 17.5781,127.0313 Q18.9063,125.375 21.4063,125.375 Q22.1094,125.375 22.75,125.5313 Q23.4063,125.6875 23.9688,125.9844 L23.9688,128.7031 Q23.3438,128.125 22.75,127.8594 Q22.1563,127.5781 21.5313,127.5781 Q20.1875,127.5781 19.5,128.6563 Q18.8125,129.7188 18.8125,131.8125 Q18.8125,133.9063 19.5,134.9844 Q20.1875,136.0469 21.5313,136.0469 Q22.1563,136.0469 22.75,135.7813 Q23.3438,135.5 23.9688,134.9219 L23.9688,137.6406 Z "/><text fill="#000000" font-family="sans-serif" font-size="12" lengthAdjust="spacingAndGlyphs" textLength="76" x="35" y="136.1543">UrlResource</text><line style="stroke: #225C4D; stroke-width: 1.5;" x1="7" x2="113" y1="148" y2="148"/><line style="stroke: #225C4D; stroke-width: 1.5;" x1="7" x2="113" y1="156" y2="156"/><!--MD5=[168e6e10947e840fc2052bd9195b9970]
class ClassPathResource--><rect fill="#DDEEE8" filter="url(#f105vv0mmybhyk)" height="48" id="ClassPathResource" style="stroke: #225C4D; stroke-width: 1.5;" width="153" x="149.5" y="116"/><ellipse cx="164.5" cy="132" fill="#ADD1B2" rx="11" ry="11" style="stroke: #225C4D; stroke-width: 1.0;"/><path d="M167.4688,137.6406 Q166.8906,137.9375 166.25,138.0781 Q165.6094,138.2344 164.9063,138.2344 Q162.4063,138.2344 161.0781,136.5938 Q159.7656,134.9375 159.7656,131.8125 Q159.7656,128.6875 161.0781,127.0313 Q162.4063,125.375 164.9063,125.375 Q165.6094,125.375 166.25,125.5313 Q166.9063,125.6875 167.4688,125.9844 L167.4688,128.7031 Q166.8438,128.125 166.25,127.8594 Q165.6563,127.5781 165.0313,127.5781 Q163.6875,127.5781 163,128.6563 Q162.3125,129.7188 162.3125,131.8125 Q162.3125,133.9063 163,134.9844 Q163.6875,136.0469 165.0313,136.0469 Q165.6563,136.0469 166.25,135.7813 Q166.8438,135.5 167.4688,134.9219 L167.4688,137.6406 Z "/><text fill="#000000" font-family="sans-serif" font-size="12" lengthAdjust="spacingAndGlyphs" textLength="121" x="178.5" y="136.1543">ClassPathResource</text><line style="stroke: #225C4D; stroke-width: 1.5;" x1="150.5" x2="301.5" y1="148" y2="148"/><line style="stroke: #225C4D; stroke-width: 1.5;" x1="150.5" x2="301.5" y1="156" y2="156"/><!--MD5=[ab2c823133cefd9ce933c6c3441cf409]
class FileSystemResource--><rect fill="#DDEEE8" filter="url(#f105vv0mmybhyk)" height="48" id="FileSystemResource" style="stroke: #225C4D; stroke-width: 1.5;" width="157" x="337.5" y="116"/><ellipse cx="352.5" cy="132" fill="#ADD1B2" rx="11" ry="11" style="stroke: #225C4D; stroke-width: 1.0;"/><path d="M355.4688,137.6406 Q354.8906,137.9375 354.25,138.0781 Q353.6094,138.2344 352.9063,138.2344 Q350.4063,138.2344 349.0781,136.5938 Q347.7656,134.9375 347.7656,131.8125 Q347.7656,128.6875 349.0781,127.0313 Q350.4063,125.375 352.9063,125.375 Q353.6094,125.375 354.25,125.5313 Q354.9063,125.6875 355.4688,125.9844 L355.4688,128.7031 Q354.8438,128.125 354.25,127.8594 Q353.6563,127.5781 353.0313,127.5781 Q351.6875,127.5781 351,128.6563 Q350.3125,129.7188 350.3125,131.8125 Q350.3125,133.9063 351,134.9844 Q351.6875,136.0469 353.0313,136.0469 Q353.6563,136.0469 354.25,135.7813 Q354.8438,135.5 355.4688,134.9219 L355.4688,137.6406 Z "/><text fill="#000000" font-family="sans-serif" font-size="12" lengthAdjust="spacingAndGlyphs" textLength="125" x="366.5" y="136.1543">FileSystemResource</text><line style="stroke: #225C4D; stroke-width: 1.5;" x1="338.5" x2="493.5" y1="148" y2="148"/><line style="stroke: #225C4D; stroke-width: 1.5;" x1="338.5" x2="493.5" y1="156" y2="156"/><!--MD5=[5a023da37ad8e69acf6e0fb4a2fd663d]
class ServletContextResource--><rect fill="#DDEEE8" filter="url(#f105vv0mmybhyk)" height="48" id="ServletContextResource" style="stroke: #225C4D; stroke-width: 1.5;" width="182" x="530" y="116"/><ellipse cx="545" cy="132" fill="#ADD1B2" rx="11" ry="11" style="stroke: #225C4D; stroke-width: 1.0;"/><path d="M547.9688,137.6406 Q547.3906,137.9375 546.75,138.0781 Q546.1094,138.2344 545.4063,138.2344 Q542.9063,138.2344 541.5781,136.5938 Q540.2656,134.9375 540.2656,131.8125 Q540.2656,128.6875 541.5781,127.0313 Q542.9063,125.375 545.4063,125.375 Q546.1094,125.375 546.75,125.5313 Q547.4063,125.6875 547.9688,125.9844 L547.9688,128.7031 Q547.3438,128.125 546.75,127.8594 Q546.1563,127.5781 545.5313,127.5781 Q544.1875,127.5781 543.5,128.6563 Q542.8125,129.7188 542.8125,131.8125 Q542.8125,133.9063 543.5,134.9844 Q544.1875,136.0469 545.5313,136.0469 Q546.1563,136.0469 546.75,135.7813 Q547.3438,135.5 547.9688,134.9219 L547.9688,137.6406 Z "/><text fill="#000000" font-family="sans-serif" font-size="12" lengthAdjust="spacingAndGlyphs" textLength="150" x="559" y="136.1543">ServletContextResource</text><line style="stroke: #225C4D; stroke-width: 1.5;" x1="531" x2="711" y1="148" y2="148"/><line style="stroke: #225C4D; stroke-width: 1.5;" x1="531" x2="711" y1="156" y2="156"/><!--MD5=[44eee45f4f0f74c01445c9cb3f01ac0a]
class InputStreamResource--><rect fill="#DDEEE8" filter="url(#f105vv0mmybhyk)" height="48" id="InputStreamResource" style="stroke: #225C4D; stroke-width: 1.5;" width="168" x="747" y="116"/><ellipse cx="762" cy="132" fill="#ADD1B2" rx="11" ry="11" style="stroke: #225C4D; stroke-width: 1.0;"/><path d="M764.9688,137.6406 Q764.3906,137.9375 763.75,138.0781 Q763.1094,138.2344 762.4063,138.2344 Q759.9063,138.2344 758.5781,136.5938 Q757.2656,134.9375 757.2656,131.8125 Q757.2656,128.6875 758.5781,127.0313 Q759.9063,125.375 762.4063,125.375 Q763.1094,125.375 763.75,125.5313 Q764.4063,125.6875 764.9688,125.9844 L764.9688,128.7031 Q764.3438,128.125 763.75,127.8594 Q763.1563,127.5781 762.5313,127.5781 Q761.1875,127.5781 760.5,128.6563 Q759.8125,129.7188 759.8125,131.8125 Q759.8125,133.9063 760.5,134.9844 Q761.1875,136.0469 762.5313,136.0469 Q763.1563,136.0469 763.75,135.7813 Q764.3438,135.5 764.9688,134.9219 L764.9688,137.6406 Z "/><text fill="#000000" font-family="sans-serif" font-size="12" lengthAdjust="spacingAndGlyphs" textLength="136" x="776" y="136.1543">InputStreamResource</text><line style="stroke: #225C4D; stroke-width: 1.5;" x1="748" x2="914" y1="148" y2="148"/><line style="stroke: #225C4D; stroke-width: 1.5;" x1="748" x2="914" y1="156" y2="156"/><!--MD5=[8e8cb00bb5e08981aa2833ae560f94b4]
class ByteArrayResource--><rect fill="#DDEEE8" filter="url(#f105vv0mmybhyk)" height="48" id="ByteArrayResource" style="stroke: #225C4D; stroke-width: 1.5;" width="150" x="950" y="116"/><ellipse cx="965" cy="132" fill="#ADD1B2" rx="11" ry="11" style="stroke: #225C4D; stroke-width: 1.0;"/><path d="M967.9688,137.6406 Q967.3906,137.9375 966.75,138.0781 Q966.1094,138.2344 965.4063,138.2344 Q962.9063,138.2344 961.5781,136.5938 Q960.2656,134.9375 960.2656,131.8125 Q960.2656,128.6875 961.5781,127.0313 Q962.9063,125.375 965.4063,125.375 Q966.1094,125.375 966.75,125.5313 Q967.4063,125.6875 967.9688,125.9844 L967.9688,128.7031 Q967.3438,128.125 966.75,127.8594 Q966.1563,127.5781 965.5313,127.5781 Q964.1875,127.5781 963.5,128.6563 Q962.8125,129.7188 962.8125,131.8125 Q962.8125,133.9063 963.5,134.9844 Q964.1875,136.0469 965.5313,136.0469 Q966.1563,136.0469 966.75,135.7813 Q967.3438,135.5 967.9688,134.9219 L967.9688,137.6406 Z "/><text fill="#000000" font-family="sans-serif" font-size="12" lengthAdjust="spacingAndGlyphs" textLength="118" x="979" y="136.1543">ByteArrayResource</text><line style="stroke: #225C4D; stroke-width: 1.5;" x1="951" x2="1099" y1="148" y2="148"/><line style="stroke: #225C4D; stroke-width: 1.5;" x1="951" x2="1099" y1="156" y2="156"/><!--MD5=[8454db1e62ef358420df00d0ada250bd]
reverse link Resource to UrlResource--><path d="M454.6,44.67 C377.74,59.26 244.54,86 132,116 C126.17,117.55 120.11,119.29 114.09,121.1 " fill="none" id="Resource&lt;-UrlResource" style="stroke: #225C4D; stroke-width: 1.0; stroke-dasharray: 7.0,7.0;"/><polygon fill="none" points="453.3,37.79,474.25,40.97,455.89,51.54,453.3,37.79" style="stroke: #225C4D; stroke-width: 1.0;"/><!--MD5=[b8e05dd4940d7d929fb5cd70468333be]
reverse link Resource to ClassPathResource--><path d="M455.22,55.79 C406.28,73.55 338.62,98.12 289.5,115.95 " fill="none" id="Resource&lt;-ClassPathResource" style="stroke: #225C4D; stroke-width: 1.0; stroke-dasharray: 7.0,7.0;"/><polygon fill="none" points="453.1,49.11,474.28,48.87,457.87,62.27,453.1,49.11" style="stroke: #225C4D; stroke-width: 1.0;"/><!--MD5=[8576c8a08e61e605b095ff175f7cfb25]
reverse link Resource to FileSystemResource--><path d="M481.67,70.75 C467.25,85.74 451.11,102.51 438.44,115.68 " fill="none" id="Resource&lt;-FileSystemResource" style="stroke: #225C4D; stroke-width: 1.0; stroke-dasharray: 7.0,7.0;"/><polygon fill="none" points="476.96,65.56,495.87,56,487.04,75.27,476.96,65.56" style="stroke: #225C4D; stroke-width: 1.0;"/><!--MD5=[ef4fc9b4ae7a95e86b7b456b4607dfe3]
reverse link Resource to ServletContextResource--><path d="M554.68,70.75 C569.25,85.74 585.55,102.51 598.34,115.68 " fill="none" id="Resource&lt;-ServletContextResource" style="stroke: #225C4D; stroke-width: 1.0; stroke-dasharray: 7.0,7.0;"/><polygon fill="none" points="549.27,75.22,540.35,56,559.31,65.47,549.27,75.22" style="stroke: #225C4D; stroke-width: 1.0;"/><!--MD5=[2ce9cd029163394622ac080bfd1e5176]
reverse link Resource to InputStreamResource--><path d="M580.54,54.18 C633.27,72.04 708.61,97.55 762.87,115.93 " fill="none" id="Resource&lt;-InputStreamResource" style="stroke: #225C4D; stroke-width: 1.0; stroke-dasharray: 7.0,7.0;"/><polygon fill="none" points="578.22,60.78,561.52,47.74,582.71,47.52,578.22,60.78" style="stroke: #225C4D; stroke-width: 1.0;"/><!--MD5=[38d914b7aa7cb3a18102c4f18daf0f5c]
reverse link Resource to ByteArrayResource--><path d="M581.55,44.74 C663.15,60.03 809.02,88.12 933,116 C938.46,117.23 944.09,118.54 949.76,119.88 " fill="none" id="Resource&lt;-ByteArrayResource" style="stroke: #225C4D; stroke-width: 1.0; stroke-dasharray: 7.0,7.0;"/><polygon fill="none" points="580.14,51.59,561.76,41.04,582.71,37.83,580.14,51.59" style="stroke: #225C4D; stroke-width: 1.0;"/><!--MD5=[6b7c3ef12a18d2fe98de99e4b98d3120]
@startuml
skinparam class {
 BackgroundColor #DDEEE8
 BorderColor #225C4D
 ArrowColor #225C4D
 }
interface Resource

Resource <|.. UrlResource
Resource <|.. ClassPathResource
Resource <|.. FileSystemResource
Resource <|.. ServletContextResource
Resource <|.. InputStreamResource
Resource <|.. ByteArrayResource
@enduml

PlantUML version 1.2019.12(Sun Nov 03 11:24:54 CET 2019)
(APACHE source distribution)
Java Runtime: OpenJDK Runtime Environment
JVM: OpenJDK 64-Bit Server VM
Java Version: 11.0.18+10-post-Debian-1deb11u1
Operating System: Linux
Default Encoding: UTF-8
Language: en
Country: DK
--></g></svg>