<?xml version="1.0" encoding="UTF-8" standalone="no"?><svg xmlns="http://www.w3.org/2000/svg" xmlns:xlink="http://www.w3.org/1999/xlink" contentScriptType="application/ecmascript" contentStyleType="text/css" height="188px" preserveAspectRatio="none" style="width:580px;height:188px;" version="1.1" viewBox="0 0 580 188" width="580px" zoomAndPan="magnify"><defs><filter height="300%" id="fvyg0f1ktcegc" width="300%" x="-1" y="-1"><feGaussianBlur result="blurOut" stdDeviation="2.0"/><feColorMatrix in="blurOut" result="blurOut2" type="matrix" values="0 0 0 0 0 0 0 0 0 0 0 0 0 0 0 0 0 0 .4 0"/><feOffset dx="4.0" dy="4.0" in="blurOut2" result="blurOut3"/><feBlend in="SourceGraphic" in2="blurOut3" mode="normal"/></filter></defs><g><!--MD5=[b120fd1c728560034407e9e8727993b7]
class ResourceLoader--><rect fill="#DDEEE8" filter="url(#fvyg0f1ktcegc)" height="60.8047" id="ResourceLoader" style="stroke: #225C4D; stroke-width: 1.5;" width="236" x="6" y="8"/><ellipse cx="71.75" cy="24" fill="#B4A7E5" rx="11" ry="11" style="stroke: #225C4D; stroke-width: 1.0;"/><path d="M67.6719,19.7656 L67.6719,17.6094 L75.0625,17.6094 L75.0625,19.7656 L72.5938,19.7656 L72.5938,27.8438 L75.0625,27.8438 L75.0625,30 L67.6719,30 L67.6719,27.8438 L70.1406,27.8438 L70.1406,19.7656 L67.6719,19.7656 Z "/><text fill="#000000" font-family="sans-serif" font-size="12" font-style="italic" lengthAdjust="spacingAndGlyphs" textLength="96" x="92.25" y="28.1543">ResourceLoader</text><line style="stroke: #225C4D; stroke-width: 1.5;" x1="7" x2="241" y1="40" y2="40"/><line style="stroke: #225C4D; stroke-width: 1.5;" x1="7" x2="241" y1="48" y2="48"/><text fill="#000000" font-family="sans-serif" font-size="11" lengthAdjust="spacingAndGlyphs" textLength="224" x="12" y="62.2104">getResource(location: String): Resource</text><!--MD5=[251d76d717cdb724eb95cf47c6f070d4]
class ResourcePatternResolver--><rect fill="#DDEEE8" filter="url(#fvyg0f1ktcegc)" height="60.8047" id="ResourcePatternResolver" style="stroke: #225C4D; stroke-width: 1.5;" width="292" x="277" y="8"/><ellipse cx="345.25" cy="24" fill="#B4A7E5" rx="11" ry="11" style="stroke: #225C4D; stroke-width: 1.0;"/><path d="M341.1719,19.7656 L341.1719,17.6094 L348.5625,17.6094 L348.5625,19.7656 L346.0938,19.7656 L346.0938,27.8438 L348.5625,27.8438 L348.5625,30 L341.1719,30 L341.1719,27.8438 L343.6406,27.8438 L343.6406,19.7656 L341.1719,19.7656 Z "/><text fill="#000000" font-family="sans-serif" font-size="12" font-style="italic" lengthAdjust="spacingAndGlyphs" textLength="147" x="365.75" y="28.1543">ResourcePatternResolver</text><line style="stroke: #225C4D; stroke-width: 1.5;" x1="278" x2="568" y1="40" y2="40"/><line style="stroke: #225C4D; stroke-width: 1.5;" x1="278" x2="568" y1="48" y2="48"/><text fill="#000000" font-family="sans-serif" font-size="11" lengthAdjust="spacingAndGlyphs" textLength="280" x="283" y="62.2104">getResources(locationPattern: String): Resource[]</text><!--MD5=[bd5220611d0c28d928ccc89c278a01cf]
class ApplicationContext--><rect fill="#DDEEE8" filter="url(#fvyg0f1ktcegc)" height="48" id="ApplicationContext" style="stroke: #225C4D; stroke-width: 1.5;" width="144" x="351" y="129"/><ellipse cx="366" cy="145" fill="#B4A7E5" rx="11" ry="11" style="stroke: #225C4D; stroke-width: 1.0;"/><path d="M361.9219,140.7656 L361.9219,138.6094 L369.3125,138.6094 L369.3125,140.7656 L366.8438,140.7656 L366.8438,148.8438 L369.3125,148.8438 L369.3125,151 L361.9219,151 L361.9219,148.8438 L364.3906,148.8438 L364.3906,140.7656 L361.9219,140.7656 Z "/><text fill="#000000" font-family="sans-serif" font-size="12" font-style="italic" lengthAdjust="spacingAndGlyphs" textLength="112" x="380" y="149.1543">ApplicationContext</text><line style="stroke: #225C4D; stroke-width: 1.5;" x1="352" x2="494" y1="161" y2="161"/><line style="stroke: #225C4D; stroke-width: 1.5;" x1="352" x2="494" y1="169" y2="169"/><!--MD5=[4c0eec8197bdba6a60e9f03d2b08fa3d]
class DefaultResourceLoader--><rect fill="#DDEEE8" filter="url(#fvyg0f1ktcegc)" height="48" id="DefaultResourceLoader" style="stroke: #225C4D; stroke-width: 1.5;" width="179" x="34.5" y="129"/><ellipse cx="49.5" cy="145" fill="#ADD1B2" rx="11" ry="11" style="stroke: #225C4D; stroke-width: 1.0;"/><path d="M52.4688,150.6406 Q51.8906,150.9375 51.25,151.0781 Q50.6094,151.2344 49.9063,151.2344 Q47.4063,151.2344 46.0781,149.5938 Q44.7656,147.9375 44.7656,144.8125 Q44.7656,141.6875 46.0781,140.0313 Q47.4063,138.375 49.9063,138.375 Q50.6094,138.375 51.25,138.5313 Q51.9063,138.6875 52.4688,138.9844 L52.4688,141.7031 Q51.8438,141.125 51.25,140.8594 Q50.6563,140.5781 50.0313,140.5781 Q48.6875,140.5781 48,141.6563 Q47.3125,142.7188 47.3125,144.8125 Q47.3125,146.9063 48,147.9844 Q48.6875,149.0469 50.0313,149.0469 Q50.6563,149.0469 51.25,148.7813 Q51.8438,148.5 52.4688,147.9219 L52.4688,150.6406 Z "/><text fill="#000000" font-family="sans-serif" font-size="12" lengthAdjust="spacingAndGlyphs" textLength="147" x="63.5" y="149.1543">DefaultResourceLoader</text><line style="stroke: #225C4D; stroke-width: 1.5;" x1="35.5" x2="212.5" y1="161" y2="161"/><line style="stroke: #225C4D; stroke-width: 1.5;" x1="35.5" x2="212.5" y1="169" y2="169"/><!--MD5=[fed48a0f79f2af11d3521141143db75a]
reverse link ResourceLoader to ResourcePatternResolver--><path d="M262.26,38.5 C267.12,38.5 271.99,38.5 276.85,38.5 " fill="none" id="ResourceLoader&lt;-ResourcePatternResolver" style="stroke: #225C4D; stroke-width: 1.0;"/><polygon fill="none" points="262.26,45.5,242.26,38.5,262.26,31.5,262.26,45.5" style="stroke: #225C4D; stroke-width: 1.0;"/><!--MD5=[ed0833894c8e242e6a4c1f43e081b35a]
reverse link ResourcePatternResolver to ApplicationContext--><path d="M423,89.11 C423,102.88 423,117.18 423,128.67 " fill="none" id="ResourcePatternResolver&lt;-ApplicationContext" style="stroke: #225C4D; stroke-width: 1.0;"/><polygon fill="none" points="416,89.06,423,69.06,430,89.06,416,89.06" style="stroke: #225C4D; stroke-width: 1.0;"/><!--MD5=[b658824a5008af7c5bb868e8fd4e5ff2]
reverse link ResourceLoader to DefaultResourceLoader--><path d="M124,89.11 C124,102.88 124,117.18 124,128.67 " fill="none" id="ResourceLoader&lt;-DefaultResourceLoader" style="stroke: #225C4D; stroke-width: 1.0; stroke-dasharray: 7.0,7.0;"/><polygon fill="none" points="117,89.06,124,69.06,131,89.06,117,89.06" style="stroke: #225C4D; stroke-width: 1.0;"/><!--MD5=[dc63603ff910c823b21d2063f53a6c88]
@startuml
skinparam class {
 BackgroundColor #DDEEE8
 BorderColor #225C4D
 ArrowColor #225C4D
 }
skinparam handwritten false
interface ResourceLoader
interface ResourcePatternResolver
interface ApplicationContext

ResourceLoader : getResource(location: String): Resource
ResourcePatternResolver : getResources(locationPattern: String): Resource[]

ResourceLoader <|- ResourcePatternResolver
ResourcePatternResolver <|- - ApplicationContext
ResourceLoader <|.. DefaultResourceLoader
@enduml

PlantUML version 1.2019.12(Sun Nov 03 11:24:54 CET 2019)
(APACHE source distribution)
Java Runtime: OpenJDK Runtime Environment
JVM: OpenJDK 64-Bit Server VM
Java Version: 11.0.18+10-post-Debian-1deb11u1
Operating System: Linux
Default Encoding: UTF-8
Language: en
Country: DK
--></g></svg>