<?xml version="1.0" encoding="UTF-8" standalone="no"?><svg xmlns="http://www.w3.org/2000/svg" xmlns:xlink="http://www.w3.org/1999/xlink" contentScriptType="application/ecmascript" contentStyleType="text/css" height="200px" preserveAspectRatio="none" style="width:463px;height:200px;" version="1.1" viewBox="0 0 463 200" width="463px" zoomAndPan="magnify"><defs><filter height="300%" id="f17r9bmfgrgq61" width="300%" x="-1" y="-1"><feGaussianBlur result="blurOut" stdDeviation="2.0"/><feColorMatrix in="blurOut" result="blurOut2" type="matrix" values="0 0 0 0 0 0 0 0 0 0 0 0 0 0 0 0 0 0 .4 0"/><feOffset dx="4.0" dy="4.0" in="blurOut2" result="blurOut3"/><feBlend in="SourceGraphic" in2="blurOut3" mode="normal"/></filter></defs><g><!--MD5=[e67b3ec2fa0257fc8ecc8794ed0cd36d]
class AbstractApplicationFactory--><rect fill="#DDEEE8" filter="url(#f17r9bmfgrgq61)" height="60.8047" id="AbstractApplicationFactory" style="stroke: #225C4D; stroke-width: 1.5;" width="298" x="133.5" y="8"/><ellipse cx="194.25" cy="24" fill="#ADD1B2" rx="11" ry="11" style="stroke: #225C4D; stroke-width: 1.0;"/><path d="M197.2188,29.6406 Q196.6406,29.9375 196,30.0781 Q195.3594,30.2344 194.6563,30.2344 Q192.1563,30.2344 190.8281,28.5938 Q189.5156,26.9375 189.5156,23.8125 Q189.5156,20.6875 190.8281,19.0313 Q192.1563,17.375 194.6563,17.375 Q195.3594,17.375 196,17.5313 Q196.6563,17.6875 197.2188,17.9844 L197.2188,20.7031 Q196.5938,20.125 196,19.8594 Q195.4063,19.5781 194.7813,19.5781 Q193.4375,19.5781 192.75,20.6563 Q192.0625,21.7188 192.0625,23.8125 Q192.0625,25.9063 192.75,26.9844 Q193.4375,28.0469 194.7813,28.0469 Q195.4063,28.0469 196,27.7813 Q196.5938,27.5 197.2188,26.9219 L197.2188,29.6406 Z "/><text fill="#000000" font-family="sans-serif" font-size="12" lengthAdjust="spacingAndGlyphs" textLength="168" x="214.75" y="28.1543">AbstractApplicationFactory</text><line style="stroke: #225C4D; stroke-width: 1.5;" x1="134.5" x2="430.5" y1="40" y2="40"/><line style="stroke: #225C4D; stroke-width: 1.5;" x1="134.5" x2="430.5" y1="48" y2="48"/><text fill="#000000" font-family="sans-serif" font-size="11" lengthAdjust="spacingAndGlyphs" textLength="286" x="139.5" y="62.2104">createDatabaseConnection(): DatabaseConnection</text><!--MD5=[35406e729cbce7c6035c07041741370e]
class TestApplicationFactory--><rect fill="#DDEEE8" filter="url(#f17r9bmfgrgq61)" height="60.8047" id="TestApplicationFactory" style="stroke: #225C4D; stroke-width: 1.5;" width="340" x="112.5" y="129"/><ellipse cx="207.25" cy="145" fill="#ADD1B2" rx="11" ry="11" style="stroke: #225C4D; stroke-width: 1.0;"/><path d="M210.2188,150.6406 Q209.6406,150.9375 209,151.0781 Q208.3594,151.2344 207.6563,151.2344 Q205.1563,151.2344 203.8281,149.5938 Q202.5156,147.9375 202.5156,144.8125 Q202.5156,141.6875 203.8281,140.0313 Q205.1563,138.375 207.6563,138.375 Q208.3594,138.375 209,138.5313 Q209.6563,138.6875 210.2188,138.9844 L210.2188,141.7031 Q209.5938,141.125 209,140.8594 Q208.4063,140.5781 207.7813,140.5781 Q206.4375,140.5781 205.75,141.6563 Q205.0625,142.7188 205.0625,144.8125 Q205.0625,146.9063 205.75,147.9844 Q206.4375,149.0469 207.7813,149.0469 Q208.4063,149.0469 209,148.7813 Q209.5938,148.5 210.2188,147.9219 L210.2188,150.6406 Z "/><text fill="#000000" font-family="sans-serif" font-size="12" lengthAdjust="spacingAndGlyphs" textLength="142" x="227.75" y="149.1543">TestApplicationFactory</text><line style="stroke: #225C4D; stroke-width: 1.5;" x1="113.5" x2="451.5" y1="161" y2="161"/><line style="stroke: #225C4D; stroke-width: 1.5;" x1="113.5" x2="451.5" y1="169" y2="169"/><text fill="#000000" font-family="sans-serif" font-size="11" lengthAdjust="spacingAndGlyphs" textLength="328" x="118.5" y="183.2104">createDatabaseConnection(): MockedDatabaseConnection</text><!--MD5=[219898b7f8d5c969bf80bd91dd512ee8]
class MyService--><rect fill="#DDEEE8" filter="url(#f17r9bmfgrgq61)" height="48" id="MyService" style="stroke: #225C4D; stroke-width: 1.5;" width="93" x="6" y="14.5"/><ellipse cx="21" cy="30.5" fill="#ADD1B2" rx="11" ry="11" style="stroke: #225C4D; stroke-width: 1.0;"/><path d="M23.9688,36.1406 Q23.3906,36.4375 22.75,36.5781 Q22.1094,36.7344 21.4063,36.7344 Q18.9063,36.7344 17.5781,35.0938 Q16.2656,33.4375 16.2656,30.3125 Q16.2656,27.1875 17.5781,25.5313 Q18.9063,23.875 21.4063,23.875 Q22.1094,23.875 22.75,24.0313 Q23.4063,24.1875 23.9688,24.4844 L23.9688,27.2031 Q23.3438,26.625 22.75,26.3594 Q22.1563,26.0781 21.5313,26.0781 Q20.1875,26.0781 19.5,27.1563 Q18.8125,28.2188 18.8125,30.3125 Q18.8125,32.4063 19.5,33.4844 Q20.1875,34.5469 21.5313,34.5469 Q22.1563,34.5469 22.75,34.2813 Q23.3438,34 23.9688,33.4219 L23.9688,36.1406 Z "/><text fill="#000000" font-family="sans-serif" font-size="12" lengthAdjust="spacingAndGlyphs" textLength="61" x="35" y="34.6543">MyService</text><line style="stroke: #225C4D; stroke-width: 1.5;" x1="7" x2="98" y1="46.5" y2="46.5"/><line style="stroke: #225C4D; stroke-width: 1.5;" x1="7" x2="98" y1="54.5" y2="54.5"/><!--MD5=[c0abba10908809fc61844e99f9a818e9]
reverse link AbstractApplicationFactory to TestApplicationFactory--><path d="M282.5,89.33 C282.5,102.73 282.5,116.81 282.5,128.74 " fill="none" id="AbstractApplicationFactory&lt;-TestApplicationFactory" style="stroke: #225C4D; stroke-width: 1.0;"/><polygon fill="none" points="275.5,89.22,282.5,69.22,289.5,89.22,275.5,89.22" style="stroke: #225C4D; stroke-width: 1.0;"/><!--MD5=[68b70cb1c3f13d9e2b09ee8a29b40f3d]
link MyService to AbstractApplicationFactory--><path d="M99.22,38.5 C108.87,38.5 118.52,38.5 128.18,38.5 " fill="none" id="MyService-&gt;AbstractApplicationFactory" style="stroke: #225C4D; stroke-width: 1.0;"/><polygon fill="#225C4D" points="133.23,38.5,124.23,34.5,128.23,38.5,124.23,42.5,133.23,38.5" style="stroke: #225C4D; stroke-width: 1.0;"/><!--MD5=[623915fea0d68ef1694eac0d116e3e51]
@startuml
skinparam class {
 BackgroundColor #DDEEE8
 BorderColor #225C4D
 ArrowColor #225C4D
 }
class AbstractApplicationFactory {
    createDatabaseConnection(): DatabaseConnection
}
class TestApplicationFactory extends AbstractApplicationFactory {
    createDatabaseConnection(): MockedDatabaseConnection
}

MyService -> AbstractApplicationFactory
@enduml

PlantUML version 1.2019.12(Sun Nov 03 11:24:54 CET 2019)
(APACHE source distribution)
Java Runtime: OpenJDK Runtime Environment
JVM: OpenJDK 64-Bit Server VM
Java Version: 17.0.6+10-Debian-1deb11u1
Operating System: Linux
Default Encoding: UTF-8
Language: de
Country: DE
--></g></svg>