<?xml version="1.0" encoding="UTF-8" standalone="no"?><svg xmlns="http://www.w3.org/2000/svg" xmlns:xlink="http://www.w3.org/1999/xlink" contentScriptType="application/ecmascript" contentStyleType="text/css" height="79px" preserveAspectRatio="none" style="width:363px;height:79px;" version="1.1" viewBox="0 0 363 79" width="363px" zoomAndPan="magnify"><defs><filter height="300%" id="flny5fcb1slq9" width="300%" x="-1" y="-1"><feGaussianBlur result="blurOut" stdDeviation="2.0"/><feColorMatrix in="blurOut" result="blurOut2" type="matrix" values="0 0 0 0 0 0 0 0 0 0 0 0 0 0 0 0 0 0 .4 0"/><feOffset dx="4.0" dy="4.0" in="blurOut2" result="blurOut3"/><feBlend in="SourceGraphic" in2="blurOut3" mode="normal"/></filter></defs><g><!--MD5=[219898b7f8d5c969bf80bd91dd512ee8]
class MyService--><rect fill="#DDEEE8" filter="url(#flny5fcb1slq9)" height="48" id="MyService" style="stroke: #225C4D; stroke-width: 1.5;" width="93" x="6" y="14.5"/><ellipse cx="21" cy="30.5" fill="#ADD1B2" rx="11" ry="11" style="stroke: #225C4D; stroke-width: 1.0;"/><path d="M23.9688,36.1406 Q23.3906,36.4375 22.75,36.5781 Q22.1094,36.7344 21.4063,36.7344 Q18.9063,36.7344 17.5781,35.0938 Q16.2656,33.4375 16.2656,30.3125 Q16.2656,27.1875 17.5781,25.5313 Q18.9063,23.875 21.4063,23.875 Q22.1094,23.875 22.75,24.0313 Q23.4063,24.1875 23.9688,24.4844 L23.9688,27.2031 Q23.3438,26.625 22.75,26.3594 Q22.1563,26.0781 21.5313,26.0781 Q20.1875,26.0781 19.5,27.1563 Q18.8125,28.2188 18.8125,30.3125 Q18.8125,32.4063 19.5,33.4844 Q20.1875,34.5469 21.5313,34.5469 Q22.1563,34.5469 22.75,34.2813 Q23.3438,34 23.9688,33.4219 L23.9688,36.1406 Z "/><text fill="#000000" font-family="sans-serif" font-size="12" lengthAdjust="spacingAndGlyphs" textLength="61" x="35" y="34.6543">MyService</text><line style="stroke: #225C4D; stroke-width: 1.5;" x1="7" x2="98" y1="46.5" y2="46.5"/><line style="stroke: #225C4D; stroke-width: 1.5;" x1="7" x2="98" y1="54.5" y2="54.5"/><!--MD5=[1e01740ac65d9cfc5dbad37d18c706e8]
class ServiceLocator--><rect fill="#DDEEE8" filter="url(#flny5fcb1slq9)" height="60.8047" id="ServiceLocator" style="stroke: #225C4D; stroke-width: 1.5;" width="218" x="134.5" y="8"/><ellipse cx="193.25" cy="24" fill="#ADD1B2" rx="11" ry="11" style="stroke: #225C4D; stroke-width: 1.0;"/><path d="M196.2188,29.6406 Q195.6406,29.9375 195,30.0781 Q194.3594,30.2344 193.6563,30.2344 Q191.1563,30.2344 189.8281,28.5938 Q188.5156,26.9375 188.5156,23.8125 Q188.5156,20.6875 189.8281,19.0313 Q191.1563,17.375 193.6563,17.375 Q194.3594,17.375 195,17.5313 Q195.6563,17.6875 196.2188,17.9844 L196.2188,20.7031 Q195.5938,20.125 195,19.8594 Q194.4063,19.5781 193.7813,19.5781 Q192.4375,19.5781 191.75,20.6563 Q191.0625,21.7188 191.0625,23.8125 Q191.0625,25.9063 191.75,26.9844 Q192.4375,28.0469 193.7813,28.0469 Q194.4063,28.0469 195,27.7813 Q195.5938,27.5 196.2188,26.9219 L196.2188,29.6406 Z "/><text fill="#000000" font-family="sans-serif" font-size="12" lengthAdjust="spacingAndGlyphs" textLength="92" x="213.75" y="28.1543">ServiceLocator</text><line style="stroke: #225C4D; stroke-width: 1.5;" x1="135.5" x2="351.5" y1="40" y2="40"/><line style="stroke: #225C4D; stroke-width: 1.5;" x1="135.5" x2="351.5" y1="48" y2="48"/><text fill="#000000" font-family="sans-serif" font-size="11" lengthAdjust="spacingAndGlyphs" textLength="206" x="140.5" y="62.2104">databaseService(): databaseService</text><!--MD5=[86047e31aac90101623398d84d548a9c]
link MyService to ServiceLocator--><path d="M99.13,38.5 C109.14,38.5 119.14,38.5 129.15,38.5 " fill="none" id="MyService-&gt;ServiceLocator" style="stroke: #225C4D; stroke-width: 1.0;"/><polygon fill="#225C4D" points="134.38,38.5,125.38,34.5,129.38,38.5,125.38,42.5,134.38,38.5" style="stroke: #225C4D; stroke-width: 1.0;"/><!--MD5=[45eabaf17dde80ca5452e1d5ba99dc74]
@startuml
skinparam class {
 BackgroundColor #DDEEE8
 BorderColor #225C4D
 ArrowColor #225C4D
 }
class MyService
class ServiceLocator {
    databaseService(): databaseService
}

MyService -> ServiceLocator
@enduml

PlantUML version 1.2019.12(Sun Nov 03 11:24:54 CET 2019)
(APACHE source distribution)
Java Runtime: OpenJDK Runtime Environment
JVM: OpenJDK 64-Bit Server VM
Java Version: 17.0.6+10-Debian-1deb11u1
Operating System: Linux
Default Encoding: UTF-8
Language: de
Country: DE
--></g></svg>