<?xml version="1.0" encoding="UTF-8" standalone="no"?><svg xmlns="http://www.w3.org/2000/svg" xmlns:xlink="http://www.w3.org/1999/xlink" contentScriptType="application/ecmascript" contentStyleType="text/css" height="359px" preserveAspectRatio="none" style="width:494px;height:359px;" version="1.1" viewBox="0 0 494 359" width="494px" zoomAndPan="magnify"><defs><filter height="300%" id="ff21yvw71152v" width="300%" x="-1" y="-1"><feGaussianBlur result="blurOut" stdDeviation="2.0"/><feColorMatrix in="blurOut" result="blurOut2" type="matrix" values="0 0 0 0 0 0 0 0 0 0 0 0 0 0 0 0 0 0 .4 0"/><feOffset dx="4.0" dy="4.0" in="blurOut2" result="blurOut3"/><feBlend in="SourceGraphic" in2="blurOut3" mode="normal"/></filter></defs><g><!--MD5=[0ba60c1c7eece7977c024cb94d0d3fa3]
class Fish--><rect fill="#DDEEE8" filter="url(#ff21yvw71152v)" height="99.2188" id="Fish" style="stroke: #225C4D; stroke-width: 1.5;" width="99" x="381" y="129"/><ellipse cx="414.9" cy="145" fill="#ADD1B2" rx="11" ry="11" style="stroke: #225C4D; stroke-width: 1.0;"/><path d="M417.8688,150.6406 Q417.2906,150.9375 416.65,151.0781 Q416.0094,151.2344 415.3063,151.2344 Q412.8063,151.2344 411.4781,149.5938 Q410.1656,147.9375 410.1656,144.8125 Q410.1656,141.6875 411.4781,140.0313 Q412.8063,138.375 415.3063,138.375 Q416.0094,138.375 416.65,138.5313 Q417.3063,138.6875 417.8688,138.9844 L417.8688,141.7031 Q417.2438,141.125 416.65,140.8594 Q416.0563,140.5781 415.4313,140.5781 Q414.0875,140.5781 413.4,141.6563 Q412.7125,142.7188 412.7125,144.8125 Q412.7125,146.9063 413.4,147.9844 Q414.0875,149.0469 415.4313,149.0469 Q416.0563,149.0469 416.65,148.7813 Q417.2438,148.5 417.8688,147.9219 L417.8688,150.6406 Z "/><text fill="#000000" font-family="sans-serif" font-size="12" lengthAdjust="spacingAndGlyphs" textLength="25" x="433.1" y="149.1543">Fish</text><line style="stroke: #225C4D; stroke-width: 1.5;" x1="382" x2="479" y1="161" y2="161"/><text fill="#000000" font-family="sans-serif" font-size="11" lengthAdjust="spacingAndGlyphs" textLength="27" x="387" y="175.2104">int: x</text><text fill="#000000" font-family="sans-serif" font-size="11" lengthAdjust="spacingAndGlyphs" textLength="27" x="387" y="188.0151">int: y</text><text fill="#000000" font-family="sans-serif" font-size="11" lengthAdjust="spacingAndGlyphs" textLength="87" x="387" y="200.8198">int: breedCount</text><text fill="#000000" font-family="sans-serif" font-size="11" lengthAdjust="spacingAndGlyphs" textLength="55" x="387" y="213.6245">int: epoch</text><line style="stroke: #225C4D; stroke-width: 1.5;" x1="382" x2="479" y1="220.2188" y2="220.2188"/><!--MD5=[a775a447afabda8fde7af7acad23eaa3]
class Shark--><rect fill="#DDEEE8" filter="url(#ff21yvw71152v)" height="60.8047" id="Shark" style="stroke: #225C4D; stroke-width: 1.5;" width="102" x="381.5" y="288"/><ellipse cx="411.8" cy="304" fill="#ADD1B2" rx="11" ry="11" style="stroke: #225C4D; stroke-width: 1.0;"/><path d="M414.7688,309.6406 Q414.1906,309.9375 413.55,310.0781 Q412.9094,310.2344 412.2063,310.2344 Q409.7063,310.2344 408.3781,308.5938 Q407.0656,306.9375 407.0656,303.8125 Q407.0656,300.6875 408.3781,299.0313 Q409.7063,297.375 412.2063,297.375 Q412.9094,297.375 413.55,297.5313 Q414.2063,297.6875 414.7688,297.9844 L414.7688,300.7031 Q414.1438,300.125 413.55,299.8594 Q412.9563,299.5781 412.3313,299.5781 Q410.9875,299.5781 410.3,300.6563 Q409.6125,301.7188 409.6125,303.8125 Q409.6125,305.9063 410.3,306.9844 Q410.9875,308.0469 412.3313,308.0469 Q412.9563,308.0469 413.55,307.7813 Q414.1438,307.5 414.7688,306.9219 L414.7688,309.6406 Z "/><text fill="#000000" font-family="sans-serif" font-size="12" lengthAdjust="spacingAndGlyphs" textLength="36" x="429.2" y="308.1543">Shark</text><line style="stroke: #225C4D; stroke-width: 1.5;" x1="382.5" x2="482.5" y1="320" y2="320"/><text fill="#000000" font-family="sans-serif" font-size="11" lengthAdjust="spacingAndGlyphs" textLength="90" x="387.5" y="334.2104">int: starveCount</text><line style="stroke: #225C4D; stroke-width: 1.5;" x1="382.5" x2="482.5" y1="340.8047" y2="340.8047"/><!--MD5=[b7f703641cfac7325e5056c4b9979d96]
class FishStrategy--><rect fill="#DDEEE8" filter="url(#ff21yvw71152v)" height="73.6094" id="FishStrategy" style="stroke: #225C4D; stroke-width: 1.5;" width="110" x="232.5" y="141.5"/><ellipse cx="247.5" cy="157.5" fill="#ADD1B2" rx="11" ry="11" style="stroke: #225C4D; stroke-width: 1.0;"/><path d="M250.4688,163.1406 Q249.8906,163.4375 249.25,163.5781 Q248.6094,163.7344 247.9063,163.7344 Q245.4063,163.7344 244.0781,162.0938 Q242.7656,160.4375 242.7656,157.3125 Q242.7656,154.1875 244.0781,152.5313 Q245.4063,150.875 247.9063,150.875 Q248.6094,150.875 249.25,151.0313 Q249.9063,151.1875 250.4688,151.4844 L250.4688,154.2031 Q249.8438,153.625 249.25,153.3594 Q248.6563,153.0781 248.0313,153.0781 Q246.6875,153.0781 246,154.1563 Q245.3125,155.2188 245.3125,157.3125 Q245.3125,159.4063 246,160.4844 Q246.6875,161.5469 248.0313,161.5469 Q248.6563,161.5469 249.25,161.2813 Q249.8438,161 250.4688,160.4219 L250.4688,163.1406 Z "/><text fill="#000000" font-family="sans-serif" font-size="12" lengthAdjust="spacingAndGlyphs" textLength="78" x="261.5" y="161.6543">FishStrategy</text><line style="stroke: #225C4D; stroke-width: 1.5;" x1="233.5" x2="341.5" y1="173.5" y2="173.5"/><text fill="#000000" font-family="sans-serif" font-size="11" lengthAdjust="spacingAndGlyphs" textLength="72" x="238.5" y="187.7104">Random: rnd</text><line style="stroke: #225C4D; stroke-width: 1.5;" x1="233.5" x2="341.5" y1="194.3047" y2="194.3047"/><text fill="#000000" font-family="sans-serif" font-size="11" lengthAdjust="spacingAndGlyphs" textLength="78" x="238.5" y="208.5151">tick(fish: Fish)</text><!--MD5=[bbaade6d19ec52f1095749ebd86b294f]
class SharkStrategy--><rect fill="#DDEEE8" filter="url(#ff21yvw71152v)" height="48" id="SharkStrategy" style="stroke: #225C4D; stroke-width: 1.5;" width="121" x="225" y="294.5"/><ellipse cx="240" cy="310.5" fill="#ADD1B2" rx="11" ry="11" style="stroke: #225C4D; stroke-width: 1.0;"/><path d="M242.9688,316.1406 Q242.3906,316.4375 241.75,316.5781 Q241.1094,316.7344 240.4063,316.7344 Q237.9063,316.7344 236.5781,315.0938 Q235.2656,313.4375 235.2656,310.3125 Q235.2656,307.1875 236.5781,305.5313 Q237.9063,303.875 240.4063,303.875 Q241.1094,303.875 241.75,304.0313 Q242.4063,304.1875 242.9688,304.4844 L242.9688,307.2031 Q242.3438,306.625 241.75,306.3594 Q241.1563,306.0781 240.5313,306.0781 Q239.1875,306.0781 238.5,307.1563 Q237.8125,308.2188 237.8125,310.3125 Q237.8125,312.4063 238.5,313.4844 Q239.1875,314.5469 240.5313,314.5469 Q241.1563,314.5469 241.75,314.2813 Q242.3438,314 242.9688,313.4219 L242.9688,316.1406 Z "/><text fill="#000000" font-family="sans-serif" font-size="12" lengthAdjust="spacingAndGlyphs" textLength="89" x="254" y="314.6543">SharkStrategy</text><line style="stroke: #225C4D; stroke-width: 1.5;" x1="226" x2="345" y1="326.5" y2="326.5"/><line style="stroke: #225C4D; stroke-width: 1.5;" x1="226" x2="345" y1="334.5" y2="334.5"/><!--MD5=[2efdb4a49938705e9c98cee183f14864]
class Torus--><rect fill="#DDEEE8" filter="url(#ff21yvw71152v)" height="99.2188" id="Torus" style="stroke: #225C4D; stroke-width: 1.5;" width="191" x="6" y="129"/><ellipse cx="79.75" cy="145" fill="#ADD1B2" rx="11" ry="11" style="stroke: #225C4D; stroke-width: 1.0;"/><path d="M82.7188,150.6406 Q82.1406,150.9375 81.5,151.0781 Q80.8594,151.2344 80.1563,151.2344 Q77.6563,151.2344 76.3281,149.5938 Q75.0156,147.9375 75.0156,144.8125 Q75.0156,141.6875 76.3281,140.0313 Q77.6563,138.375 80.1563,138.375 Q80.8594,138.375 81.5,138.5313 Q82.1563,138.6875 82.7188,138.9844 L82.7188,141.7031 Q82.0938,141.125 81.5,140.8594 Q80.9063,140.5781 80.2813,140.5781 Q78.9375,140.5781 78.25,141.6563 Q77.5625,142.7188 77.5625,144.8125 Q77.5625,146.9063 78.25,147.9844 Q78.9375,149.0469 80.2813,149.0469 Q80.9063,149.0469 81.5,148.7813 Q82.0938,148.5 82.7188,147.9219 L82.7188,150.6406 Z "/><text fill="#000000" font-family="sans-serif" font-size="12" lengthAdjust="spacingAndGlyphs" textLength="35" x="100.25" y="149.1543">Torus</text><line style="stroke: #225C4D; stroke-width: 1.5;" x1="7" x2="196" y1="161" y2="161"/><text fill="#000000" font-family="sans-serif" font-size="11" lengthAdjust="spacingAndGlyphs" textLength="30" x="12" y="175.2104">width</text><text fill="#000000" font-family="sans-serif" font-size="11" lengthAdjust="spacingAndGlyphs" textLength="35" x="12" y="188.0151">height</text><line style="stroke: #225C4D; stroke-width: 1.5;" x1="7" x2="196" y1="194.6094" y2="194.6094"/><text fill="#000000" font-family="sans-serif" font-size="11" lengthAdjust="spacingAndGlyphs" textLength="151" x="12" y="208.8198">getFishAt(int: x, int: y): Fish</text><text fill="#000000" font-family="sans-serif" font-size="11" lengthAdjust="spacingAndGlyphs" textLength="179" x="12" y="221.6245">setFishAt(int: x, int: y, Fish: fish)</text><!--MD5=[f4d9ae4120b4d31a7c6ebb64b823872a]
class WorldEngine--><rect fill="#DDEEE8" filter="url(#ff21yvw71152v)" height="60.8047" id="WorldEngine" style="stroke: #225C4D; stroke-width: 1.5;" width="110" x="139.5" y="8"/><ellipse cx="154.5" cy="24" fill="#ADD1B2" rx="11" ry="11" style="stroke: #225C4D; stroke-width: 1.0;"/><path d="M157.4688,29.6406 Q156.8906,29.9375 156.25,30.0781 Q155.6094,30.2344 154.9063,30.2344 Q152.4063,30.2344 151.0781,28.5938 Q149.7656,26.9375 149.7656,23.8125 Q149.7656,20.6875 151.0781,19.0313 Q152.4063,17.375 154.9063,17.375 Q155.6094,17.375 156.25,17.5313 Q156.9063,17.6875 157.4688,17.9844 L157.4688,20.7031 Q156.8438,20.125 156.25,19.8594 Q155.6563,19.5781 155.0313,19.5781 Q153.6875,19.5781 153,20.6563 Q152.3125,21.7188 152.3125,23.8125 Q152.3125,25.9063 153,26.9844 Q153.6875,28.0469 155.0313,28.0469 Q155.6563,28.0469 156.25,27.7813 Q156.8438,27.5 157.4688,26.9219 L157.4688,29.6406 Z "/><text fill="#000000" font-family="sans-serif" font-size="12" lengthAdjust="spacingAndGlyphs" textLength="78" x="168.5" y="28.1543">WorldEngine</text><line style="stroke: #225C4D; stroke-width: 1.5;" x1="140.5" x2="248.5" y1="40" y2="40"/><line style="stroke: #225C4D; stroke-width: 1.5;" x1="140.5" x2="248.5" y1="48" y2="48"/><text fill="#000000" font-family="sans-serif" font-size="11" lengthAdjust="spacingAndGlyphs" textLength="27" x="145.5" y="62.2104">tick()</text><!--MD5=[59b985f8aecb190fcd73b19124e187f6]
reverse link Fish to Shark--><path d="M431.5,248.24 C431.7,262.14 431.9,276.06 432.07,287.73 " fill="none" id="Fish&lt;-Shark" style="stroke: #225C4D; stroke-width: 1.0;"/><polygon fill="none" points="424.5,248.25,431.21,228.15,438.49,248.05,424.5,248.25" style="stroke: #225C4D; stroke-width: 1.0;"/><!--MD5=[c49ae02282a10f4b5debb08e1c7146eb]
reverse link FishStrategy to SharkStrategy--><path d="M286.68,235.87 C286.39,256.39 286.07,278.45 285.83,294.46 " fill="none" id="FishStrategy&lt;-SharkStrategy" style="stroke: #225C4D; stroke-width: 1.0;"/><polygon fill="none" points="279.69,235.65,286.97,215.76,293.68,235.86,279.69,235.65" style="stroke: #225C4D; stroke-width: 1.0;"/><!--MD5=[ac6abbe29962b858326751538a4fd202]
link FishStrategy to Fish--><path d="M342.52,178.5 C353.55,178.5 364.58,178.5 375.6,178.5 " fill="none" id="FishStrategy-&gt;Fish" style="stroke: #225C4D; stroke-width: 1.0; stroke-dasharray: 7.0,7.0;"/><polygon fill="#225C4D" points="380.67,178.5,371.67,174.5,375.67,178.5,371.67,182.5,380.67,178.5" style="stroke: #225C4D; stroke-width: 1.0;"/><!--MD5=[73e4455fddb3e42955bfa6ef6d9f02d0]
reverse link Torus to FishStrategy--><path d="M202.29,178.5 C212.32,178.5 222.35,178.5 232.38,178.5 " fill="none" id="Torus&lt;-FishStrategy" style="stroke: #225C4D; stroke-width: 1.0;"/><polygon fill="#225C4D" points="197.04,178.5,206.04,182.5,202.04,178.5,206.04,174.5,197.04,178.5" style="stroke: #225C4D; stroke-width: 1.0;"/><!--MD5=[0445ecf359bdcf561354ce5fb4546b67]
link WorldEngine to Torus--><path d="M174.55,69.1 C163.63,85.3 149.78,105.86 137.08,124.7 " fill="none" id="WorldEngine-&gt;Torus" style="stroke: #225C4D; stroke-width: 1.0;"/><polygon fill="#225C4D" points="134.22,128.95,142.5654,123.7199,137.0132,124.803,135.9301,119.2507,134.22,128.95" style="stroke: #225C4D; stroke-width: 1.0;"/><!--MD5=[2ea54469a1d06cd0cc3beb8132656899]
link WorldEngine to FishStrategy--><path d="M214.45,69.1 C227.81,88.93 245.57,115.28 260.23,137.03 " fill="none" id="WorldEngine-&gt;FishStrategy" style="stroke: #225C4D; stroke-width: 1.0;"/><polygon fill="#225C4D" points="263.12,141.32,261.3944,131.6235,260.3202,137.1774,254.7663,136.1032,263.12,141.32" style="stroke: #225C4D; stroke-width: 1.0;"/><text fill="#000000" font-family="sans-serif" font-size="13" lengthAdjust="spacingAndGlyphs" textLength="7" x="251.1539" y="130.4749">*</text><!--MD5=[aba4b96d16b78da4ec8780dcd5d97be4]
@startuml
skinparam class {
 BackgroundColor #DDEEE8
 BorderColor #225C4D
 ArrowColor #225C4D
 }
Fish <|- - Shark
FishStrategy <|- - SharkStrategy
FishStrategy .> Fish

Fish : int: x
Fish : int: y
Fish : int: breedCount
Fish : int: epoch

Shark : int: starveCount

FishStrategy : Random: rnd
FishStrategy : tick(fish: Fish)

Torus : width
Torus : height
Torus : getFishAt(int: x, int: y): Fish
Torus : setFishAt(int: x, int: y, Fish: fish)

Torus <- FishStrategy

WorldEngine : tick()

WorldEngine - -> Torus
WorldEngine -> "*" FishStrategy

@enduml

PlantUML version 1.2019.12(Sun Nov 03 11:24:54 CET 2019)
(APACHE source distribution)
Java Runtime: OpenJDK Runtime Environment
JVM: OpenJDK 64-Bit Server VM
Java Version: 11.0.18+10-post-Debian-1deb11u1
Operating System: Linux
Default Encoding: UTF-8
Language: en
Country: DK
--></g></svg>