<?xml version="1.0" encoding="UTF-8" standalone="no"?><svg xmlns="http://www.w3.org/2000/svg" xmlns:xlink="http://www.w3.org/1999/xlink" contentScriptType="application/ecmascript" contentStyleType="text/css" height="200px" preserveAspectRatio="none" style="width:228px;height:200px;" version="1.1" viewBox="0 0 228 200" width="228px" zoomAndPan="magnify"><defs><filter height="300%" id="f1str87ma9k83l" width="300%" x="-1" y="-1"><feGaussianBlur result="blurOut" stdDeviation="2.0"/><feColorMatrix in="blurOut" result="blurOut2" type="matrix" values="0 0 0 0 0 0 0 0 0 0 0 0 0 0 0 0 0 0 .4 0"/><feOffset dx="4.0" dy="4.0" in="blurOut2" result="blurOut3"/><feBlend in="SourceGraphic" in2="blurOut3" mode="normal"/></filter></defs><g><!--MD5=[bd5220611d0c28d928ccc89c278a01cf]
class ApplicationContext--><rect fill="#DDEEE8" filter="url(#f1str87ma9k83l)" height="60.8047" id="ApplicationContext" style="stroke: #225C4D; stroke-width: 1.5;" width="186" x="18.5" y="8"/><ellipse cx="52.4" cy="24" fill="#B4A7E5" rx="11" ry="11" style="stroke: #225C4D; stroke-width: 1.0;"/><path d="M48.3219,19.7656 L48.3219,17.6094 L55.7125,17.6094 L55.7125,19.7656 L53.2438,19.7656 L53.2438,27.8438 L55.7125,27.8438 L55.7125,30 L48.3219,30 L48.3219,27.8438 L50.7906,27.8438 L50.7906,19.7656 L48.3219,19.7656 Z "/><text fill="#000000" font-family="sans-serif" font-size="12" font-style="italic" lengthAdjust="spacingAndGlyphs" textLength="112" x="70.6" y="28.1543">ApplicationContext</text><line style="stroke: #225C4D; stroke-width: 1.5;" x1="19.5" x2="203.5" y1="40" y2="40"/><line style="stroke: #225C4D; stroke-width: 1.5;" x1="19.5" x2="203.5" y1="48" y2="48"/><text fill="#000000" font-family="sans-serif" font-size="11" lengthAdjust="spacingAndGlyphs" textLength="174" x="24.5" y="62.2104">getParent(): ApplicationContext</text><!--MD5=[25babdaaa420b6624a10302656c23378]
class WebApplicationContext--><rect fill="#DDEEE8" filter="url(#f1str87ma9k83l)" height="60.8047" id="WebApplicationContext" style="stroke: #225C4D; stroke-width: 1.5;" width="211" x="6" y="129"/><ellipse cx="39" cy="145" fill="#B4A7E5" rx="11" ry="11" style="stroke: #225C4D; stroke-width: 1.0;"/><path d="M34.9219,140.7656 L34.9219,138.6094 L42.3125,138.6094 L42.3125,140.7656 L39.8438,140.7656 L39.8438,148.8438 L42.3125,148.8438 L42.3125,151 L34.9219,151 L34.9219,148.8438 L37.3906,148.8438 L37.3906,140.7656 L34.9219,140.7656 Z "/><text fill="#000000" font-family="sans-serif" font-size="12" font-style="italic" lengthAdjust="spacingAndGlyphs" textLength="139" x="57" y="149.1543">WebApplicationContext</text><line style="stroke: #225C4D; stroke-width: 1.5;" x1="7" x2="216" y1="161" y2="161"/><line style="stroke: #225C4D; stroke-width: 1.5;" x1="7" x2="216" y1="169" y2="169"/><text fill="#000000" font-family="sans-serif" font-size="11" lengthAdjust="spacingAndGlyphs" textLength="199" x="12" y="183.2104">getServletContext(): ServletContext</text><!--MD5=[18817da13b5077a129740727b00cf8e2]
reverse link ApplicationContext to WebApplicationContext--><path d="M111.5,89.33 C111.5,102.73 111.5,116.81 111.5,128.74 " fill="none" id="ApplicationContext&lt;-WebApplicationContext" style="stroke: #225C4D; stroke-width: 1.0; stroke-dasharray: 7.0,7.0;"/><polygon fill="none" points="104.5,89.22,111.5,69.22,118.5,89.22,104.5,89.22" style="stroke: #225C4D; stroke-width: 1.0;"/><!--MD5=[5531bd0f087051d389bbc09347a2c722]
@startuml
skinparam class {
 BackgroundColor #DDEEE8
 BorderColor #225C4D
 ArrowColor #225C4D
 }
interface ApplicationContext {
    getParent(): ApplicationContext
}

interface WebApplicationContext {
    getServletContext(): ServletContext
}

ApplicationContext <|.. WebApplicationContext
@enduml

PlantUML version 1.2019.12(Sun Nov 03 11:24:54 CET 2019)
(APACHE source distribution)
Java Runtime: OpenJDK Runtime Environment
JVM: OpenJDK 64-Bit Server VM
Java Version: 11.0.18+10-post-Debian-1deb11u1
Operating System: Linux
Default Encoding: UTF-8
Language: en
Country: DK
--></g></svg>