<?xml version="1.0" encoding="UTF-8" standalone="no"?><svg xmlns="http://www.w3.org/2000/svg" xmlns:xlink="http://www.w3.org/1999/xlink" contentScriptType="application/ecmascript" contentStyleType="text/css" height="391px" preserveAspectRatio="none" style="width:1274px;height:391px;" version="1.1" viewBox="0 0 1274 391" width="1274px" zoomAndPan="magnify"><defs><filter height="300%" id="ftzlipgxvsbwp" width="300%" x="-1" y="-1"><feGaussianBlur result="blurOut" stdDeviation="2.0"/><feColorMatrix in="blurOut" result="blurOut2" type="matrix" values="0 0 0 0 0 0 0 0 0 0 0 0 0 0 0 0 0 0 .4 0"/><feOffset dx="4.0" dy="4.0" in="blurOut2" result="blurOut3"/><feBlend in="SourceGraphic" in2="blurOut3" mode="normal"/></filter></defs><g><!--MD5=[bd5220611d0c28d928ccc89c278a01cf]
class ApplicationContext--><rect fill="#DDEEE8" filter="url(#ftzlipgxvsbwp)" height="48" id="ApplicationContext" style="stroke: #225C4D; stroke-width: 1.5;" width="144" x="380" y="8"/><ellipse cx="395" cy="24" fill="#B4A7E5" rx="11" ry="11" style="stroke: #225C4D; stroke-width: 1.0;"/><path d="M390.9219,19.7656 L390.9219,17.6094 L398.3125,17.6094 L398.3125,19.7656 L395.8438,19.7656 L395.8438,27.8438 L398.3125,27.8438 L398.3125,30 L390.9219,30 L390.9219,27.8438 L393.3906,27.8438 L393.3906,19.7656 L390.9219,19.7656 Z "/><text fill="#000000" font-family="sans-serif" font-size="12" font-style="italic" lengthAdjust="spacingAndGlyphs" textLength="112" x="409" y="28.1543">ApplicationContext</text><line style="stroke: #225C4D; stroke-width: 1.5;" x1="381" x2="523" y1="40" y2="40"/><line style="stroke: #225C4D; stroke-width: 1.5;" x1="381" x2="523" y1="48" y2="48"/><!--MD5=[25babdaaa420b6624a10302656c23378]
class WebApplicationContext--><rect fill="#DDEEE8" filter="url(#ftzlipgxvsbwp)" height="48" id="WebApplicationContext" style="stroke: #225C4D; stroke-width: 1.5;" width="171" x="559.5" y="8"/><ellipse cx="574.5" cy="24" fill="#B4A7E5" rx="11" ry="11" style="stroke: #225C4D; stroke-width: 1.0;"/><path d="M570.4219,19.7656 L570.4219,17.6094 L577.8125,17.6094 L577.8125,19.7656 L575.3438,19.7656 L575.3438,27.8438 L577.8125,27.8438 L577.8125,30 L570.4219,30 L570.4219,27.8438 L572.8906,27.8438 L572.8906,19.7656 L570.4219,19.7656 Z "/><text fill="#000000" font-family="sans-serif" font-size="12" font-style="italic" lengthAdjust="spacingAndGlyphs" textLength="139" x="588.5" y="28.1543">WebApplicationContext</text><line style="stroke: #225C4D; stroke-width: 1.5;" x1="560.5" x2="729.5" y1="40" y2="40"/><line style="stroke: #225C4D; stroke-width: 1.5;" x1="560.5" x2="729.5" y1="48" y2="48"/><!--MD5=[bc42f8007547cbb7408e9d726a1110ed]
class ConfigurableWebApplicationContext--><rect fill="#DDEEE8" filter="url(#ftzlipgxvsbwp)" height="48" id="ConfigurableWebApplicationContext" style="stroke: #225C4D; stroke-width: 1.5;" width="246" x="766" y="8"/><ellipse cx="781" cy="24" fill="#B4A7E5" rx="11" ry="11" style="stroke: #225C4D; stroke-width: 1.0;"/><path d="M776.9219,19.7656 L776.9219,17.6094 L784.3125,17.6094 L784.3125,19.7656 L781.8438,19.7656 L781.8438,27.8438 L784.3125,27.8438 L784.3125,30 L776.9219,30 L776.9219,27.8438 L779.3906,27.8438 L779.3906,19.7656 L776.9219,19.7656 Z "/><text fill="#000000" font-family="sans-serif" font-size="12" font-style="italic" lengthAdjust="spacingAndGlyphs" textLength="214" x="795" y="28.1543">ConfigurableWebApplicationContext</text><line style="stroke: #225C4D; stroke-width: 1.5;" x1="767" x2="1011" y1="40" y2="40"/><line style="stroke: #225C4D; stroke-width: 1.5;" x1="767" x2="1011" y1="48" y2="48"/><!--MD5=[04685d28980d4b25c14a8a8744ca97b7]
class AbstractRefreshableWebApplicationContext--><rect fill="#DDEEE8" filter="url(#ftzlipgxvsbwp)" height="48" id="AbstractRefreshableWebApplicationContext" style="stroke: #225C4D; stroke-width: 1.5;" width="304" x="386" y="116"/><ellipse cx="401" cy="132" fill="#ADD1B2" rx="11" ry="11" style="stroke: #225C4D; stroke-width: 1.0;"/><path d="M403.9688,137.6406 Q403.3906,137.9375 402.75,138.0781 Q402.1094,138.2344 401.4063,138.2344 Q398.9063,138.2344 397.5781,136.5938 Q396.2656,134.9375 396.2656,131.8125 Q396.2656,128.6875 397.5781,127.0313 Q398.9063,125.375 401.4063,125.375 Q402.1094,125.375 402.75,125.5313 Q403.4063,125.6875 403.9688,125.9844 L403.9688,128.7031 Q403.3438,128.125 402.75,127.8594 Q402.1563,127.5781 401.5313,127.5781 Q400.1875,127.5781 399.5,128.6563 Q398.8125,129.7188 398.8125,131.8125 Q398.8125,133.9063 399.5,134.9844 Q400.1875,136.0469 401.5313,136.0469 Q402.1563,136.0469 402.75,135.7813 Q403.3438,135.5 403.9688,134.9219 L403.9688,137.6406 Z "/><text fill="#000000" font-family="sans-serif" font-size="12" lengthAdjust="spacingAndGlyphs" textLength="272" x="415" y="136.1543">AbstractRefreshableWebApplicationContext</text><line style="stroke: #225C4D; stroke-width: 1.5;" x1="387" x2="689" y1="148" y2="148"/><line style="stroke: #225C4D; stroke-width: 1.5;" x1="387" x2="689" y1="156" y2="156"/><!--MD5=[4fb55b0a72f63582ec2f5f9c02ba17ba]
class AnnotationConfigWebApplicationContext--><rect fill="#DDEEE8" filter="url(#ftzlipgxvsbwp)" height="48" id="AnnotationConfigWebApplicationContext" style="stroke: #225C4D; stroke-width: 1.5;" width="284" x="6" y="224"/><ellipse cx="21" cy="240" fill="#ADD1B2" rx="11" ry="11" style="stroke: #225C4D; stroke-width: 1.0;"/><path d="M23.9688,245.6406 Q23.3906,245.9375 22.75,246.0781 Q22.1094,246.2344 21.4063,246.2344 Q18.9063,246.2344 17.5781,244.5938 Q16.2656,242.9375 16.2656,239.8125 Q16.2656,236.6875 17.5781,235.0313 Q18.9063,233.375 21.4063,233.375 Q22.1094,233.375 22.75,233.5313 Q23.4063,233.6875 23.9688,233.9844 L23.9688,236.7031 Q23.3438,236.125 22.75,235.8594 Q22.1563,235.5781 21.5313,235.5781 Q20.1875,235.5781 19.5,236.6563 Q18.8125,237.7188 18.8125,239.8125 Q18.8125,241.9063 19.5,242.9844 Q20.1875,244.0469 21.5313,244.0469 Q22.1563,244.0469 22.75,243.7813 Q23.3438,243.5 23.9688,242.9219 L23.9688,245.6406 Z "/><text fill="#000000" font-family="sans-serif" font-size="12" lengthAdjust="spacingAndGlyphs" textLength="252" x="35" y="244.1543">AnnotationConfigWebApplicationContext</text><line style="stroke: #225C4D; stroke-width: 1.5;" x1="7" x2="289" y1="256" y2="256"/><line style="stroke: #225C4D; stroke-width: 1.5;" x1="7" x2="289" y1="264" y2="264"/><!--MD5=[aee1d6c27bd0a76e4ca4f4ae5a18548c]
class GroovyWebApplicationContext--><rect fill="#DDEEE8" filter="url(#ftzlipgxvsbwp)" height="48" id="GroovyWebApplicationContext" style="stroke: #225C4D; stroke-width: 1.5;" width="218" x="325" y="224"/><ellipse cx="340" cy="240" fill="#ADD1B2" rx="11" ry="11" style="stroke: #225C4D; stroke-width: 1.0;"/><path d="M342.9688,245.6406 Q342.3906,245.9375 341.75,246.0781 Q341.1094,246.2344 340.4063,246.2344 Q337.9063,246.2344 336.5781,244.5938 Q335.2656,242.9375 335.2656,239.8125 Q335.2656,236.6875 336.5781,235.0313 Q337.9063,233.375 340.4063,233.375 Q341.1094,233.375 341.75,233.5313 Q342.4063,233.6875 342.9688,233.9844 L342.9688,236.7031 Q342.3438,236.125 341.75,235.8594 Q341.1563,235.5781 340.5313,235.5781 Q339.1875,235.5781 338.5,236.6563 Q337.8125,237.7188 337.8125,239.8125 Q337.8125,241.9063 338.5,242.9844 Q339.1875,244.0469 340.5313,244.0469 Q341.1563,244.0469 341.75,243.7813 Q342.3438,243.5 342.9688,242.9219 L342.9688,245.6406 Z "/><text fill="#000000" font-family="sans-serif" font-size="12" lengthAdjust="spacingAndGlyphs" textLength="186" x="354" y="244.1543">GroovyWebApplicationContext</text><line style="stroke: #225C4D; stroke-width: 1.5;" x1="326" x2="542" y1="256" y2="256"/><line style="stroke: #225C4D; stroke-width: 1.5;" x1="326" x2="542" y1="264" y2="264"/><!--MD5=[6da6fa950c2a0921d926be55a4d06b12]
class XmlWebApplicationContext--><rect fill="#DDEEE8" filter="url(#ftzlipgxvsbwp)" height="48" id="XmlWebApplicationContext" style="stroke: #225C4D; stroke-width: 1.5;" width="199" x="578.5" y="224"/><ellipse cx="593.5" cy="240" fill="#ADD1B2" rx="11" ry="11" style="stroke: #225C4D; stroke-width: 1.0;"/><path d="M596.4688,245.6406 Q595.8906,245.9375 595.25,246.0781 Q594.6094,246.2344 593.9063,246.2344 Q591.4063,246.2344 590.0781,244.5938 Q588.7656,242.9375 588.7656,239.8125 Q588.7656,236.6875 590.0781,235.0313 Q591.4063,233.375 593.9063,233.375 Q594.6094,233.375 595.25,233.5313 Q595.9063,233.6875 596.4688,233.9844 L596.4688,236.7031 Q595.8438,236.125 595.25,235.8594 Q594.6563,235.5781 594.0313,235.5781 Q592.6875,235.5781 592,236.6563 Q591.3125,237.7188 591.3125,239.8125 Q591.3125,241.9063 592,242.9844 Q592.6875,244.0469 594.0313,244.0469 Q594.6563,244.0469 595.25,243.7813 Q595.8438,243.5 596.4688,242.9219 L596.4688,245.6406 Z "/><text fill="#000000" font-family="sans-serif" font-size="12" lengthAdjust="spacingAndGlyphs" textLength="167" x="607.5" y="244.1543">XmlWebApplicationContext</text><line style="stroke: #225C4D; stroke-width: 1.5;" x1="579.5" x2="776.5" y1="256" y2="256"/><line style="stroke: #225C4D; stroke-width: 1.5;" x1="579.5" x2="776.5" y1="264" y2="264"/><!--MD5=[03b475f2db410d86c89ea5c92a71caa3]
class GenericWebApplicationContext--><rect fill="#DDEEE8" filter="url(#ftzlipgxvsbwp)" height="48" id="GenericWebApplicationContext" style="stroke: #225C4D; stroke-width: 1.5;" width="224" x="777" y="116"/><ellipse cx="792" cy="132" fill="#ADD1B2" rx="11" ry="11" style="stroke: #225C4D; stroke-width: 1.0;"/><path d="M794.9688,137.6406 Q794.3906,137.9375 793.75,138.0781 Q793.1094,138.2344 792.4063,138.2344 Q789.9063,138.2344 788.5781,136.5938 Q787.2656,134.9375 787.2656,131.8125 Q787.2656,128.6875 788.5781,127.0313 Q789.9063,125.375 792.4063,125.375 Q793.1094,125.375 793.75,125.5313 Q794.4063,125.6875 794.9688,125.9844 L794.9688,128.7031 Q794.3438,128.125 793.75,127.8594 Q793.1563,127.5781 792.5313,127.5781 Q791.1875,127.5781 790.5,128.6563 Q789.8125,129.7188 789.8125,131.8125 Q789.8125,133.9063 790.5,134.9844 Q791.1875,136.0469 792.5313,136.0469 Q793.1563,136.0469 793.75,135.7813 Q794.3438,135.5 794.9688,134.9219 L794.9688,137.6406 Z "/><text fill="#000000" font-family="sans-serif" font-size="12" lengthAdjust="spacingAndGlyphs" textLength="192" x="806" y="136.1543">GenericWebApplicationContext</text><line style="stroke: #225C4D; stroke-width: 1.5;" x1="778" x2="1000" y1="148" y2="148"/><line style="stroke: #225C4D; stroke-width: 1.5;" x1="778" x2="1000" y1="156" y2="156"/><!--MD5=[8e07e5361c05f00ffd64f46ceefa7ceb]
class ServletWebServerApplicationContext--><rect fill="#DDEEE8" filter="url(#ftzlipgxvsbwp)" height="48" id="ServletWebServerApplicationContext" style="stroke: #225C4D; stroke-width: 1.5;" width="259" x="812.5" y="224"/><ellipse cx="827.5" cy="240" fill="#ADD1B2" rx="11" ry="11" style="stroke: #225C4D; stroke-width: 1.0;"/><path d="M830.4688,245.6406 Q829.8906,245.9375 829.25,246.0781 Q828.6094,246.2344 827.9063,246.2344 Q825.4063,246.2344 824.0781,244.5938 Q822.7656,242.9375 822.7656,239.8125 Q822.7656,236.6875 824.0781,235.0313 Q825.4063,233.375 827.9063,233.375 Q828.6094,233.375 829.25,233.5313 Q829.9063,233.6875 830.4688,233.9844 L830.4688,236.7031 Q829.8438,236.125 829.25,235.8594 Q828.6563,235.5781 828.0313,235.5781 Q826.6875,235.5781 826,236.6563 Q825.3125,237.7188 825.3125,239.8125 Q825.3125,241.9063 826,242.9844 Q826.6875,244.0469 828.0313,244.0469 Q828.6563,244.0469 829.25,243.7813 Q829.8438,243.5 830.4688,242.9219 L830.4688,245.6406 Z "/><text fill="#000000" font-family="sans-serif" font-size="12" lengthAdjust="spacingAndGlyphs" textLength="227" x="841.5" y="244.1543">ServletWebServerApplicationContext</text><line style="stroke: #225C4D; stroke-width: 1.5;" x1="813.5" x2="1070.5" y1="256" y2="256"/><line style="stroke: #225C4D; stroke-width: 1.5;" x1="813.5" x2="1070.5" y1="264" y2="264"/><!--MD5=[afc8ed9fe81e4ff4415db93def74a3e7]
class AnnotationConfigServletWebServerApplicationContext--><rect fill="#DDEEE8" filter="url(#ftzlipgxvsbwp)" height="48" id="AnnotationConfigServletWebServerApplicationContext" style="stroke: #225C4D; stroke-width: 1.5;" width="367" x="578.5" y="332"/><ellipse cx="593.5" cy="348" fill="#ADD1B2" rx="11" ry="11" style="stroke: #225C4D; stroke-width: 1.0;"/><path d="M596.4688,353.6406 Q595.8906,353.9375 595.25,354.0781 Q594.6094,354.2344 593.9063,354.2344 Q591.4063,354.2344 590.0781,352.5938 Q588.7656,350.9375 588.7656,347.8125 Q588.7656,344.6875 590.0781,343.0313 Q591.4063,341.375 593.9063,341.375 Q594.6094,341.375 595.25,341.5313 Q595.9063,341.6875 596.4688,341.9844 L596.4688,344.7031 Q595.8438,344.125 595.25,343.8594 Q594.6563,343.5781 594.0313,343.5781 Q592.6875,343.5781 592,344.6563 Q591.3125,345.7188 591.3125,347.8125 Q591.3125,349.9063 592,350.9844 Q592.6875,352.0469 594.0313,352.0469 Q594.6563,352.0469 595.25,351.7813 Q595.8438,351.5 596.4688,350.9219 L596.4688,353.6406 Z "/><text fill="#000000" font-family="sans-serif" font-size="12" lengthAdjust="spacingAndGlyphs" textLength="335" x="607.5" y="352.1543">AnnotationConfigServletWebServerApplicationContext</text><line style="stroke: #225C4D; stroke-width: 1.5;" x1="579.5" x2="944.5" y1="364" y2="364"/><line style="stroke: #225C4D; stroke-width: 1.5;" x1="579.5" x2="944.5" y1="372" y2="372"/><!--MD5=[634c87d564a011f2bf5dfe1c00656f69]
class XmlServletWebServerApplicationContext--><rect fill="#DDEEE8" filter="url(#ftzlipgxvsbwp)" height="48" id="XmlServletWebServerApplicationContext" style="stroke: #225C4D; stroke-width: 1.5;" width="282" x="981" y="332"/><ellipse cx="996" cy="348" fill="#ADD1B2" rx="11" ry="11" style="stroke: #225C4D; stroke-width: 1.0;"/><path d="M998.9688,353.6406 Q998.3906,353.9375 997.75,354.0781 Q997.1094,354.2344 996.4063,354.2344 Q993.9063,354.2344 992.5781,352.5938 Q991.2656,350.9375 991.2656,347.8125 Q991.2656,344.6875 992.5781,343.0313 Q993.9063,341.375 996.4063,341.375 Q997.1094,341.375 997.75,341.5313 Q998.4063,341.6875 998.9688,341.9844 L998.9688,344.7031 Q998.3438,344.125 997.75,343.8594 Q997.1563,343.5781 996.5313,343.5781 Q995.1875,343.5781 994.5,344.6563 Q993.8125,345.7188 993.8125,347.8125 Q993.8125,349.9063 994.5,350.9844 Q995.1875,352.0469 996.5313,352.0469 Q997.1563,352.0469 997.75,351.7813 Q998.3438,351.5 998.9688,350.9219 L998.9688,353.6406 Z "/><text fill="#000000" font-family="sans-serif" font-size="12" lengthAdjust="spacingAndGlyphs" textLength="250" x="1010" y="352.1543">XmlServletWebServerApplicationContext</text><line style="stroke: #225C4D; stroke-width: 1.5;" x1="982" x2="1262" y1="364" y2="364"/><line style="stroke: #225C4D; stroke-width: 1.5;" x1="982" x2="1262" y1="372" y2="372"/><!--MD5=[6fb12de3a987450ffd7ab455fc624577]
class StaticWebApplicationContext--><rect fill="#DDEEE8" filter="url(#ftzlipgxvsbwp)" height="48" id="StaticWebApplicationContext" style="stroke: #225C4D; stroke-width: 1.5;" width="212" x="1036" y="116"/><ellipse cx="1051" cy="132" fill="#ADD1B2" rx="11" ry="11" style="stroke: #225C4D; stroke-width: 1.0;"/><path d="M1053.9688,137.6406 Q1053.3906,137.9375 1052.75,138.0781 Q1052.1094,138.2344 1051.4063,138.2344 Q1048.9063,138.2344 1047.5781,136.5938 Q1046.2656,134.9375 1046.2656,131.8125 Q1046.2656,128.6875 1047.5781,127.0313 Q1048.9063,125.375 1051.4063,125.375 Q1052.1094,125.375 1052.75,125.5313 Q1053.4063,125.6875 1053.9688,125.9844 L1053.9688,128.7031 Q1053.3438,128.125 1052.75,127.8594 Q1052.1563,127.5781 1051.5313,127.5781 Q1050.1875,127.5781 1049.5,128.6563 Q1048.8125,129.7188 1048.8125,131.8125 Q1048.8125,133.9063 1049.5,134.9844 Q1050.1875,136.0469 1051.5313,136.0469 Q1052.1563,136.0469 1052.75,135.7813 Q1053.3438,135.5 1053.9688,134.9219 L1053.9688,137.6406 Z "/><text fill="#000000" font-family="sans-serif" font-size="12" lengthAdjust="spacingAndGlyphs" textLength="180" x="1065" y="136.1543">StaticWebApplicationContext</text><line style="stroke: #225C4D; stroke-width: 1.5;" x1="1037" x2="1247" y1="148" y2="148"/><line style="stroke: #225C4D; stroke-width: 1.5;" x1="1037" x2="1247" y1="156" y2="156"/><!--MD5=[18817da13b5077a129740727b00cf8e2]
reverse link ApplicationContext to WebApplicationContext--><path d="M544.53,32 C549.44,32 554.34,32 559.24,32 " fill="none" id="ApplicationContext&lt;-WebApplicationContext" style="stroke: #225C4D; stroke-width: 1.0; stroke-dasharray: 7.0,7.0;"/><polygon fill="none" points="544.38,39,524.38,32,544.37,25,544.38,39" style="stroke: #225C4D; stroke-width: 1.0;"/><!--MD5=[8bda4f8c7848f93c6570054d6a6f26f9]
reverse link WebApplicationContext to ConfigurableWebApplicationContext--><path d="M750.97,32 C755.88,32 760.79,32 765.7,32 " fill="none" id="WebApplicationContext&lt;-ConfigurableWebApplicationContext" style="stroke: #225C4D; stroke-width: 1.0; stroke-dasharray: 7.0,7.0;"/><polygon fill="none" points="750.78,39,730.78,32,750.78,25,750.78,39" style="stroke: #225C4D; stroke-width: 1.0;"/><!--MD5=[005978582973c957011976d6815b2f4f]
reverse link ConfigurableWebApplicationContext to AbstractRefreshableWebApplicationContext--><path d="M793.55,61.82 C737.24,78.83 666.92,100.07 614.32,115.95 " fill="none" id="ConfigurableWebApplicationContext&lt;-AbstractRefreshableWebApplicationContext" style="stroke: #225C4D; stroke-width: 1.0; stroke-dasharray: 7.0,7.0;"/><polygon fill="none" points="791.67,55.08,812.84,56,795.72,68.48,791.67,55.08" style="stroke: #225C4D; stroke-width: 1.0;"/><!--MD5=[cd289f80267a6717baa335fddde84b49]
reverse link AbstractRefreshableWebApplicationContext to AnnotationConfigWebApplicationContext--><path d="M433.99,169.27 C371.08,186.37 291.89,207.89 232.8,223.95 " fill="none" id="AbstractRefreshableWebApplicationContext&lt;-AnnotationConfigWebApplicationContext" style="stroke: #225C4D; stroke-width: 1.0;"/><polygon fill="none" points="432.24,162.49,453.38,164,435.91,176,432.24,162.49" style="stroke: #225C4D; stroke-width: 1.0;"/><!--MD5=[262bcab9f5141f8c131bfbdf634edd68]
reverse link AbstractRefreshableWebApplicationContext to GroovyWebApplicationContext--><path d="M501.42,178.28 C486.6,193.39 469.93,210.38 456.88,223.68 " fill="none" id="AbstractRefreshableWebApplicationContext&lt;-GroovyWebApplicationContext" style="stroke: #225C4D; stroke-width: 1.0;"/><polygon fill="none" points="496.43,173.37,515.43,164,506.42,183.18,496.43,173.37" style="stroke: #225C4D; stroke-width: 1.0;"/><!--MD5=[71e6d52dc988aa15ab1465f198337783]
reverse link AbstractRefreshableWebApplicationContext to XmlWebApplicationContext--><path d="M584.45,176.17 C605.08,191.79 628.8,209.75 647.2,223.68 " fill="none" id="AbstractRefreshableWebApplicationContext&lt;-XmlWebApplicationContext" style="stroke: #225C4D; stroke-width: 1.0;"/><polygon fill="none" points="580.1,181.65,568.38,164,588.55,170.49,580.1,181.65" style="stroke: #225C4D; stroke-width: 1.0;"/><!--MD5=[a5554dc665f80976cc82b04d7a3fe27b]
reverse link ConfigurableWebApplicationContext to GenericWebApplicationContext--><path d="M889,76.02 C889,89.58 889,104.04 889,115.68 " fill="none" id="ConfigurableWebApplicationContext&lt;-GenericWebApplicationContext" style="stroke: #225C4D; stroke-width: 1.0; stroke-dasharray: 7.0,7.0;"/><polygon fill="none" points="882,76,889,56,896,76,882,76" style="stroke: #225C4D; stroke-width: 1.0;"/><!--MD5=[097fb82502b5e73f87c6269ee1642302]
reverse link GenericWebApplicationContext to ServletWebServerApplicationContext--><path d="M909.55,182.09 C916.6,196.2 924.24,211.48 930.34,223.68 " fill="none" id="GenericWebApplicationContext&lt;-ServletWebServerApplicationContext" style="stroke: #225C4D; stroke-width: 1.0;"/><polygon fill="none" points="903.18,185.02,900.5,164,915.71,178.76,903.18,185.02" style="stroke: #225C4D; stroke-width: 1.0;"/><!--MD5=[8055d90d486e2c49dabbee8a8c70e760]
reverse link ServletWebServerApplicationContext to AnnotationConfigServletWebServerApplicationContext--><path d="M885.36,282.35 C858.03,298.45 825.9,317.37 801.29,331.86 " fill="none" id="ServletWebServerApplicationContext&lt;-AnnotationConfigServletWebServerApplicationContext" style="stroke: #225C4D; stroke-width: 1.0;"/><polygon fill="none" points="882.16,276.12,902.94,272,889.26,288.18,882.16,276.12" style="stroke: #225C4D; stroke-width: 1.0;"/><!--MD5=[434c21df844756d3835e255599985187]
reverse link ServletWebServerApplicationContext to XmlServletWebServerApplicationContext--><path d="M998.64,282.35 C1025.97,298.45 1058.1,317.37 1082.71,331.86 " fill="none" id="ServletWebServerApplicationContext&lt;-XmlServletWebServerApplicationContext" style="stroke: #225C4D; stroke-width: 1.0;"/><polygon fill="none" points="994.74,288.18,981.06,272,1001.84,276.12,994.74,288.18" style="stroke: #225C4D; stroke-width: 1.0;"/><!--MD5=[f2a4d70c4355320fb3d9fe426392120d]
reverse link ConfigurableWebApplicationContext to StaticWebApplicationContext--><path d="M962.6,63.83 C1002.25,80.45 1050.36,100.6 1086.77,115.86 " fill="none" id="ConfigurableWebApplicationContext&lt;-StaticWebApplicationContext" style="stroke: #225C4D; stroke-width: 1.0; stroke-dasharray: 7.0,7.0;"/><polygon fill="none" points="959.64,70.19,943.9,56,965.05,57.27,959.64,70.19" style="stroke: #225C4D; stroke-width: 1.0;"/><!--MD5=[0625f5224d199ef259fdfa2a55c7399a]
@startuml
skinparam class {
 BackgroundColor #DDEEE8
 BorderColor #225C4D
 ArrowColor #225C4D
 }
interface ApplicationContext
interface WebApplicationContext
interface ConfigurableWebApplicationContext

ApplicationContext <|. WebApplicationContext
WebApplicationContext <|. ConfigurableWebApplicationContext
ConfigurableWebApplicationContext <|.. AbstractRefreshableWebApplicationContext
AbstractRefreshableWebApplicationContext <|- - AnnotationConfigWebApplicationContext
AbstractRefreshableWebApplicationContext <|- - GroovyWebApplicationContext
AbstractRefreshableWebApplicationContext <|- - XmlWebApplicationContext
ConfigurableWebApplicationContext <|.. GenericWebApplicationContext
GenericWebApplicationContext <|- - ServletWebServerApplicationContext
ServletWebServerApplicationContext <|- - AnnotationConfigServletWebServerApplicationContext
ServletWebServerApplicationContext <|- - XmlServletWebServerApplicationContext
ConfigurableWebApplicationContext <|.. StaticWebApplicationContext
@enduml

PlantUML version 1.2019.12(Sun Nov 03 11:24:54 CET 2019)
(APACHE source distribution)
Java Runtime: OpenJDK Runtime Environment
JVM: OpenJDK 64-Bit Server VM
Java Version: 11.0.18+10-post-Debian-1deb11u1
Operating System: Linux
Default Encoding: UTF-8
Language: en
Country: DK
--></g></svg>